<?xml version="1.0" encoding="utf-8"?>
<!-- Generator: Adobe Illustrator 16.0.0, SVG Export Plug-In . SVG Version: 6.00 Build 0)  -->
<!DOCTYPE svg PUBLIC "-//W3C//DTD SVG 1.1//EN" "http://www.w3.org/Graphics/SVG/1.1/DTD/svg11.dtd">
<svg version="1.1" xmlns="http://www.w3.org/2000/svg" xmlns:xlink="http://www.w3.org/1999/xlink" x="0px" y="0px" width="511.2px"
	 height="485.28px" viewBox="0 0 511.2 485.28" enable-background="new 0 0 511.2 485.28" xml:space="preserve">
<g id="Layer_2">
	<path fill="#303030" d="M93.13,480.723h231.355c29.886,0,54.341-24.454,54.341-54.333V195.031L93.13,480.723"/>
	<g>
		<path fill="#EEBF2B" d="M452.181,67.327H181.93c-29.887,0-54.341,24.455-54.341,54.333v265.903l218.04-218.041
			c8.624-8.623,19.834-13.37,31.567-13.37c24.188,0,43.138,19.464,43.138,44.31v46.278l86.181-86.18v-38.9
			C506.515,91.781,482.06,67.327,452.181,67.327z"/>
	</g>
</g>
<g id="Layer_5">
	<g>
		<path fill="#F4DEC9" d="M281.979,236.427c-12.617-6.793-27.623-7.613-40.768-11.286c-2.864-0.803-5.643-1.734-8.286-2.898
			l-0.882-0.117c-1.05-5.358-1.62-10.851-1.909-16.343c0-2.367,0.188-4.92,0.339-7.438c0.104-1.729,0.188-3.436,0.189-5.061
			c-0.001,0.001-0.003,0.001-0.004,0.001c10.766-5.027,19.922-11.513,22.653-20.975c1.105-3.835,2.354-8.391,3.629-13.148
			c0.947,7.114,11.916,6.419,15.398,1.196c2.186-3.179,3.18-7.153,5.365-10.333c2.385-3.576,4.373-6.756,6.16-10.531
			c2.584-6.16,5.564-17.486-1.391-21.659c-8.234-4.939-12.309,1.683-15.725,8.055c15.176-28.965,13.113-50.154,9.182-70.616h-0.002
			c-0.223-15.58-11.924-29.683-22.089-34.765c-11.962-5.8-34.437-3.263-41.688-15.95c1.088,6.162,6.163,10.15,9.788,14.862
			c-1.813-1.087-3.625-1.087-5.8-1.45c-15.588-1.449-31.538,0-46.038,5.438c-13.05,5.075-30.449,15.588-44.587,14.862
			c5.075,3.625,13.261,5.438,19.424,7.25c-5.542,4.327-10.902,7.002-17.501,11.159c-8.848,5.572-18.235,18.929-28.747,25.453
			c10.487-0.824,11.962-2.175,22.837-3.987c-3.263,11.601-9.425,21.75-11.238,34.075c6.888-9.787,19.938-22.475,30.812-27.188
			c-9.425,9.787-15.225,24.287-22.837,35.524c5.76-7.311,15.308-9.884,24.842-11.855c0.04,0.523,0.082,1.225,0.146,1.767
			c0.075,0.647,0.164,1.351,0.263,2.103c0.003,0.021,0.006,0.04,0.008,0.06c0.045,0.333,0.092,0.677,0.14,1.028
			c0.009,0.063,0.018,0.127,0.027,0.191c0.052,0.38,0.106,0.768,0.164,1.167c-2.285-1.222-5.06-1.249-8.609,0.882
			c-6.954,4.172-3.975,15.499-1.391,21.659c1.788,3.775,3.775,6.955,6.159,10.531c2.187,3.18,3.18,7.153,5.365,10.333
			c1.507,2.26,4.416,3.67,7.309,3.969c2.951,12.031,4.214,18.303,15.991,27.724c0.876,0.683,1.733,1.368,2.579,2.051
			c-0.572,2.648-0.754,5.792-0.921,8.952c0.03,0.024,0.062,0.05,0.093,0.074c-0.031-0.023-0.062-0.049-0.092-0.073
			c-0.118,2.232-0.23,4.472-0.472,6.551c-0.373,2.204-0.795,4.403-1.272,6.584l-1.861,0.307c-2.346,0.938-4.706,1.703-7.079,2.348
			c-18.551,5.052-37.819,2.471-56.16,12.428c-11.821,5.91-22.458,14.184-33.097,21.866c-1.591,1.061-3.015,1.938-4.05,2.59
			c-0.022-1.211-0.047-2.42-0.069-3.629c-0.003-0.209-0.007-0.418-0.011-0.627c-0.017-0.929-0.032-1.856-0.044-2.786
			c-0.005-0.4-0.008-0.803-0.012-1.205c-0.008-0.762-0.013-1.523-0.014-2.287c-0.001-0.455,0-0.91,0.002-1.365
			c0.003-0.723,0.011-1.447,0.021-2.174c0.007-0.471,0.015-0.943,0.025-1.416c0.017-0.732,0.042-1.469,0.069-2.205
			c0.017-0.459,0.032-0.92,0.054-1.383c0.038-0.801,0.088-1.609,0.142-2.416c0.026-0.402,0.046-0.801,0.077-1.203
			c0.091-1.213,0.198-2.432,0.332-3.665c1.84-18.399,2.164-34.295,14.583-48.555c0.225-0.26,0.437-0.515,0.653-0.772
			c6.8-8.074,9.157-14.616,9.357-22.006c14.152-2.929,12.304-15.045,10.398-20.627c-0.785-2.298-1.687-3.922-2.689-5.057
			c-0.004-0.504-0.035-0.99-0.081-1.466c-0.036-0.377-0.081-0.749-0.143-1.109c-0.008-0.01-0.016-0.019-0.023-0.028
			c-0.606-3.504-2.359-6.176-4.822-8.201c-0.061-0.425-0.142-0.837-0.237-1.24c-1.479-6.493-6.931-10.366-9.697-11.757
			c0.058,0.023,0.121,0.048,0.178,0.071c-0.091-0.04-0.178-0.081-0.271-0.12c-1.124-0.966-2.739-2.119-4.619-3.316
			c-0.008-0.004-0.016-0.007-0.024-0.011c-6.452-4.11-16.004-8.732-19.601-8.079c-3.309,0.735-6.068,2.882-8.416,5.641
			c-5.931,2.237-12.658,11.672-14.125,16.439c-1.337,4.545-0.958,8.312,0.311,11.935c-0.316,3.925-0.2,9.3,0.61,17.045
			c0.957,9.162,2.299,18.399,2.76,28.06c0.46,19.779-10.12,36.8-18.4,53.82c-9.2,17.939-13.34,36.34-16.56,55.658
			c-3.22,18.4-0.92,34.959,8.28,51.98c4.575,9.15,10.179,12.213,16.447,12.178c8.859-0.053,19.047-6.299,29.552-10.338
			c5.361,8.934,13.368,5.846,21.245,0.496c-0.004-0.018-0.006-0.035-0.01-0.053c0.915-0.6,1.821-1.213,2.708-1.863
			c1.117-0.818,2.216-1.66,3.316-2.5c0.03-0.023,0.059-0.047,0.088-0.07c0.376-0.287,0.744-0.57,1.114-0.857
			c0.341-0.262,0.678-0.523,1.015-0.781c0.003-0.004,0.008-0.006,0.011-0.01c0.73-0.561,1.449-1.109,2.155-1.639h0
			c0.287-0.221,0.572-0.443,0.859-0.662c5.101-3.891,10.294-8.584,16.561-10.465c0.709-0.254,1.419-0.51,2.132-0.754
			c1.014-0.352,1.816-0.605,2.464-0.752c0.374-0.088,0.772-0.156,1.158-0.139c0.234,0.01,0.44,0.049,0.623,0.121h0
			c0.099,0.039,0.192,0.09,0.279,0.15c0,0,0.001,0,0.001,0h0c0.069,0.049,0.136,0.104,0.199,0.164
			c0.003,0.002,0.006,0.004,0.009,0.006c0.063,0.063,0.123,0.129,0.181,0.203c0.001,0.002,0.003,0.004,0.005,0.006
			c0.063,0.082,0.123,0.174,0.181,0.271c0.451,0.674,0.655,1.518,0.905,2.27c0.419,1.264,0.84,2.527,1.319,3.771
			c0.355,1.068,0.722,2.135,1.087,3.199c0,0.002,0,0.002,0.001,0.004c0,0.002,0.001,0.004,0.002,0.008
			c3.03,8.756,6.512,17.34,10.639,25.641c0.862,1.732,1.751,3.453,2.633,5.178c1.13,2.143,2.231,4.389,3.295,6.719
			c0.019,0.041,0.039,0.08,0.058,0.121c0.011,0.023,0.02,0.045,0.03,0.068c0.443,0.977,0.878,1.969,1.306,2.971
			c0.059,0.135,0.115,0.27,0.173,0.406c0.002,0.004,0.004,0.01,0.007,0.014c0.585,1.385,1.156,2.791,1.708,4.219
			c0.003,0.006,0.005,0.012,0.007,0.018c0.011,0.027,0.022,0.057,0.033,0.084c0.378,0.98,0.749,1.969,1.109,2.967
			c0.196,0.531,0.402,1.061,0.592,1.594c2.722,7.691,4.833,15.619,6.003,23.697c0.406,2.801,0.685,5.621,0.844,8.447
			c0.077,1.238,0.126,2.467,0.148,3.684c0,0.002,0,0.004,0,0.006s0,0.006,0,0.01c0.014,0.723,0.016,1.441,0.009,2.156
			c0,0.008,0,0.016,0,0.025c-0.007,0.711-0.024,1.416-0.052,2.119c-0.001,0.004-0.001,0.01-0.002,0.014
			c-0.056,1.416-0.155,2.813-0.299,4.184v0.002c-0.048,0.455-0.098,0.908-0.155,1.357c-0.009,0.076-0.016,0.152-0.025,0.227
			c-0.034,0.258-0.018,1.16-0.19,1.334v0.002c-0.055,0.346-0.11,0.686-0.165,1.027c0,0.006-0.001,0.012-0.002,0.018
			c-0.011,0.068-0.022,0.137-0.034,0.205c-0.001,0.011-0.003,0.021-0.005,0.03l156.985-156.983
			C302.839,255.957,298.776,245.012,281.979,236.427z"/>
		<polygon fill="#665244" points="99.14,128.947 99.14,128.947 99.14,128.95 		"/>
	</g>
	<g>
		<g>
			<path fill="#B79065" d="M281.979,236.427c-12.617-6.793-27.623-7.613-40.768-11.286c-1.605,11.13-19.667,19.907-41.729,19.907
				c-23.116,0-41.857-9.637-41.857-21.521c0-2.312,0.717-4.534,2.027-6.62c-18.551,5.052-37.819,2.471-56.16,12.428
				c-11.821,5.91-22.458,14.184-33.097,21.866c-1.687,1.125-3.004,1.914-4.05,2.578c0.021,1.16,0.042,2.32,0.057,3.486
				c0.082,6.286,0.019,12.685-0.697,19.487c-0.005,0.045-0.01,0.094-0.014,0.139c7.291,0.662,11.422,23.367,12.388,28.684
				c1.882,8.781,1.265,15.422-2.114,20.693c-2.988,4.662-8.135,8.252-15.624,11.305c5.361,8.934,13.368,5.846,21.245,0.496
				c-0.004-0.018-0.006-0.035-0.01-0.053c0.915-0.6,1.821-1.213,2.708-1.863c1.117-0.818,2.216-1.66,3.316-2.5
				c0.03-0.023,0.059-0.047,0.088-0.07c0.376-0.287,0.744-0.57,1.114-0.857c0.341-0.262,0.678-0.523,1.015-0.781
				c0.003-0.004,0.008-0.006,0.011-0.01c0.73-0.561,1.449-1.109,2.155-1.639h0c0.287-0.221,0.572-0.443,0.859-0.662
				c5.101-3.891,10.294-8.584,16.561-10.465c0.709-0.254,1.419-0.51,2.132-0.754c1.014-0.352,1.816-0.605,2.464-0.752
				c0.374-0.088,0.772-0.156,1.158-0.139c0.234,0.01,0.44,0.049,0.623,0.121h0c0.099,0.039,0.192,0.09,0.279,0.15
				c0,0,0.001,0,0.001,0h0c0.069,0.049,0.136,0.104,0.199,0.164c0.003,0.002,0.006,0.004,0.009,0.006
				c0.063,0.063,0.123,0.129,0.181,0.203c0.001,0.002,0.003,0.004,0.005,0.006c0.063,0.082,0.123,0.174,0.181,0.271
				c0.451,0.674,0.655,1.518,0.905,2.27c0.419,1.264,0.84,2.527,1.319,3.771c0.355,1.068,0.722,2.135,1.087,3.199
				c0,0.002,0,0.002,0.001,0.004c0,0.002,0.001,0.004,0.002,0.008c3.03,8.756,6.512,17.34,10.639,25.641
				c0.862,1.732,1.751,3.453,2.633,5.178c1.13,2.143,2.231,4.389,3.295,6.719c0.019,0.041,0.039,0.08,0.058,0.121
				c0.011,0.023,0.02,0.045,0.03,0.068c0.443,0.977,0.878,1.969,1.306,2.971c0.059,0.135,0.115,0.27,0.173,0.406
				c0.002,0.004,0.004,0.01,0.007,0.014c0.585,1.385,1.156,2.791,1.708,4.219c0.003,0.006,0.005,0.012,0.007,0.018
				c0.011,0.027,0.022,0.057,0.033,0.084c0.378,0.98,0.749,1.969,1.109,2.967c0.196,0.531,0.402,1.061,0.592,1.594
				c2.722,7.691,4.833,15.619,6.003,23.697c0.406,2.801,0.685,5.621,0.844,8.447c0.077,1.238,0.126,2.467,0.148,3.684
				c0,0.002,0,0.004,0,0.006s0,0.006,0,0.01c0.014,0.723,0.016,1.441,0.009,2.156c0,0.008,0,0.016,0,0.025
				c-0.007,0.711-0.024,1.416-0.052,2.119c-0.001,0.004-0.001,0.01-0.002,0.014c-0.056,1.416-0.155,2.813-0.299,4.184v0.002
				c-0.048,0.455-0.098,0.908-0.155,1.357c-0.009,0.076-0.016,0.152-0.025,0.227c-0.034,0.258-0.018,1.16-0.19,1.334v0.002
				c-0.055,0.346-0.11,0.686-0.165,1.027c0,0.006-0.001,0.012-0.002,0.018c-0.011,0.068-0.022,0.137-0.034,0.205
				c-0.001,0.011-0.003,0.021-0.005,0.03l156.985-156.983C302.839,255.957,298.776,245.012,281.979,236.427z"/>
		</g>
	</g>
	<g>
		<g>
			<polygon fill="#F4DEC9" points="99.14,128.947 99.14,128.947 99.14,128.95 			"/>
			<path fill="#F4DEC9" d="M101.909,135.469c-0.785-2.298-1.687-3.922-2.689-5.057c-0.004-0.504-0.035-0.99-0.081-1.466
				c-0.036-0.377-0.081-0.749-0.143-1.109c-0.008-0.01-0.016-0.019-0.023-0.028c-0.606-3.504-2.359-6.176-4.822-8.201
				c-0.061-0.425-0.142-0.837-0.237-1.24c-1.479-6.493-6.931-10.366-9.697-11.757c0.058,0.023,0.121,0.048,0.178,0.071
				c-0.091-0.04-0.178-0.081-0.271-0.12c-1.124-0.966-2.739-2.119-4.619-3.316c-0.008-0.004-0.016-0.007-0.024-0.011
				c-6.452-4.11-16.004-8.732-19.601-8.079c-3.309,0.735-6.068,2.882-8.416,5.641c-5.931,2.237-12.658,11.672-14.125,16.439
				c-1.337,4.545-0.958,8.312,0.311,11.935c-0.316,3.925-0.2,9.3,0.61,17.045c0.957,9.162,2.299,18.399,2.76,28.06
				c0.46,19.779-10.12,36.8-18.4,53.82c-9.2,17.939-13.34,36.34-16.56,55.658c-3.22,18.4-0.92,34.959,8.28,51.98
				c4.575,9.15,10.179,12.213,16.447,12.178c8.859-0.053,19.047-6.299,29.552-10.338c7.489-3.053,12.636-6.643,15.624-11.305
				c3.379-5.271,3.996-11.912,2.114-20.693c-0.966-5.316-5.097-28.021-12.388-28.684c0.004-0.045,0.009-0.094,0.014-0.139
				c0.497-4.723,0.676-9.248,0.713-13.678c0.017-1.952,0.009-3.886-0.016-5.81c-0.126-9.862-0.608-19.438,0.516-29.836
				c1.84-18.399,2.164-34.295,14.583-48.555c0.225-0.26,0.437-0.515,0.653-0.772c6.8-8.074,9.157-14.616,9.357-22.006
				C105.663,153.167,103.815,141.051,101.909,135.469z"/>
		</g>
		<path fill="#F4DEC9" d="M140.012,148.088c2.187,3.18,3.18,7.153,5.365,10.333c1.507,2.26,4.416,3.67,7.309,3.969
			c2.951,12.031,4.214,18.303,15.991,27.724c0.876,0.683,1.733,1.368,2.579,2.051c-0.572,2.648-0.754,5.792-0.921,8.952
			c0.03,0.024,0.062,0.05,0.093,0.074c-0.031-0.023-0.062-0.049-0.092-0.073c-0.118,2.232-0.23,4.472-0.472,6.551
			c-0.373,2.204-0.795,4.403-1.272,6.584l-1.861,0.307c-2.346,0.938-4.706,1.703-7.079,2.348c-1.311,2.086-2.027,4.309-2.027,6.62
			c0,0.412,0.028,0.82,0.073,1.229c0.015,0.129,0.039,0.258,0.058,0.387c0.04,0.279,0.086,0.557,0.147,0.832
			c0.032,0.146,0.069,0.291,0.107,0.438c0.068,0.262,0.146,0.521,0.231,0.779c0.048,0.141,0.095,0.283,0.147,0.422
			c0.103,0.275,0.219,0.548,0.342,0.819c0.053,0.115,0.1,0.232,0.155,0.348c0.377,0.771,0.834,1.525,1.367,2.262
			c0.072,0.1,0.152,0.197,0.228,0.297c0.202,0.268,0.412,0.531,0.634,0.793c0.102,0.117,0.206,0.236,0.311,0.354
			c0.217,0.242,0.441,0.482,0.674,0.719c2.496,2.545,5.942,4.797,10.103,6.637c0.001-0.004,0.002-0.008,0.003-0.012
			c0.971,0.43,1.969,0.844,3.015,1.229c1.696,0.621,3.486,1.18,5.357,1.668c0.027,0.008,0.056,0.014,0.084,0.021
			c1.834,0.477,3.746,0.885,5.722,1.219c0.074,0.014,0.146,0.027,0.22,0.039c0.947,0.158,1.91,0.297,2.886,0.42
			c0.132,0.018,0.266,0.031,0.398,0.049c0.906,0.107,1.823,0.203,2.751,0.283c0.092,0.008,0.182,0.018,0.273,0.025
			c0.961,0.078,1.935,0.135,2.917,0.178c0.215,0.01,0.432,0.018,0.649,0.025c0.993,0.037,1.993,0.063,3.005,0.063
			c0.815,0,1.624-0.016,2.428-0.039c0.243-0.008,0.483-0.018,0.726-0.027c0.582-0.023,1.159-0.051,1.733-0.086
			c0.247-0.014,0.494-0.027,0.74-0.045c0.671-0.047,1.337-0.102,1.998-0.164c0.115-0.012,0.232-0.02,0.348-0.029
			c0.773-0.078,1.537-0.168,2.295-0.266c0.2-0.025,0.396-0.055,0.595-0.082c0.569-0.078,1.134-0.162,1.693-0.252
			c0.227-0.037,0.452-0.074,0.677-0.113c0.591-0.102,1.174-0.209,1.752-0.322c0.146-0.029,0.296-0.057,0.441-0.086
			c0.723-0.148,1.436-0.305,2.138-0.473c0.136-0.031,0.268-0.068,0.401-0.1c0.568-0.139,1.128-0.285,1.682-0.436
			c0.191-0.053,0.382-0.107,0.572-0.16c0.532-0.152,1.058-0.309,1.574-0.473c0.143-0.045,0.287-0.088,0.431-0.133
			c0.661-0.215,1.313-0.436,1.948-0.668c0.041-0.016,0.081-0.031,0.122-0.047c0.583-0.215,1.153-0.438,1.715-0.666
			c0.148-0.061,0.294-0.123,0.441-0.186c0.476-0.199,0.941-0.404,1.4-0.613c0.126-0.061,0.255-0.117,0.381-0.176
			c1.147-0.541,2.234-1.113,3.259-1.713c0.105-0.063,0.208-0.125,0.313-0.189c0.409-0.246,0.809-0.498,1.196-0.752
			c0.106-0.07,0.214-0.141,0.318-0.211c0.462-0.313,0.911-0.629,1.34-0.955c0.481-0.365,0.937-0.738,1.374-1.119
			c0.381-0.332,0.743-0.668,1.09-1.012c0.033-0.031,0.066-0.064,0.1-0.098c0.322-0.322,0.628-0.65,0.92-0.98
			c0.027-0.031,0.057-0.063,0.084-0.092c0.63-0.727,1.185-1.473,1.659-2.238c0.015-0.021,0.025-0.045,0.038-0.068
			c0.207-0.336,0.394-0.676,0.568-1.02c0.051-0.102,0.098-0.201,0.146-0.303c0.129-0.271,0.249-0.545,0.358-0.821
			c0.048-0.121,0.095-0.244,0.14-0.365c0.098-0.271,0.184-0.545,0.261-0.82c0.033-0.115,0.069-0.23,0.1-0.346
			c0.096-0.385,0.178-0.773,0.234-1.164c-2.864-0.803-5.643-1.734-8.286-2.898l-0.882-0.117c-1.05-5.358-1.62-10.851-1.909-16.343
			c0-2.367,0.188-4.92,0.339-7.438c0.104-1.729,0.188-3.436,0.189-5.061c-0.001,0.001-0.003,0.001-0.004,0.001
			c10.766-5.027,19.922-11.513,22.653-20.975c1.105-3.835,2.354-8.391,3.629-13.148c0.947,7.114,11.916,6.419,15.398,1.196
			c2.186-3.179,3.18-7.153,5.365-10.333c2.385-3.576,4.373-6.756,6.16-10.531c2.584-6.16,5.564-17.486-1.391-21.659
			c-8.238-4.943-12.314,1.692-15.732,8.068c-0.311,0.591-0.627,1.186-0.951,1.783c-0.371,0.696-0.74,1.375-1.107,2.02
			c-3.242,5.755-21.717-37.216-21.717-37.216l-1.357-3.371c-3.903,1.316-7.569,2.455-10.605,3.526
			c-7.612,2.538-15.226,5.075-22.838,7.612c-6.162,1.813-16.119,4.213-20.3,7.25c3.263-8.337,7.975-19.938,14.862-25.737
			c-11.943,9.836-26.608,17.281-41.028,22.352l-5.836,1.845c-0.455,0.119-0.913,0.237-1.377,0.35
			c-0.154,0.038-0.308,0.076-0.462,0.113c-0.597,0.142-1.197,0.279-1.806,0.414c-0.191,0.042-0.385,0.083-0.578,0.125
			c-0.46,0.1-0.923,0.197-1.389,0.294c-0.224,0.047-0.447,0.095-0.671,0.141c-0.503,0.103-1.007,0.204-1.514,0.306
			c-1.639,0.329-3.296,0.654-4.956,0.997c-0.015,0.003-0.028,0.006-0.044,0.009c0.145,1.585,0.421,3.756,0.787,6.303
			c-2.285-1.222-5.06-1.249-8.609,0.882c-6.954,4.172-3.975,15.499-1.391,21.659C135.641,141.333,137.628,144.512,140.012,148.088z"
			/>
	</g>
	<path fill="#F4DEC9" d="M98.997,127.837c-0.007-0.01-0.016-0.017-0.023-0.026c0.064,0.373,0.128,0.747,0.166,1.139
		C99.104,128.571,99.059,128.198,98.997,127.837z"/>
	<path fill="#F4DEC9" d="M101.909,135.469c-0.785-2.298-1.687-3.922-2.689-5.057c-2.193-2.313-5.847-4.075-18.621-4.801
		c-1.952-0.11,3.912-2.623,9.76-2.001c3.196,0.34,6.262,1.15,8.615,4.2c-0.606-3.505-2.359-6.176-4.822-8.203
		c-3.842-3.215-16.947-6.107-21.015-6.197c-4.066-0.09,4.52-2.982,11.298-1.175c2.44,0.65,6.578,3.092,9.199,5.086
		c0.11,0.36,0.21,0.729,0.297,1.104c-1.46-6.529-6.938-10.421-9.714-11.816c-4.478-1.841-12.625-3.98-17.859-4.136
		c-5.333-0.157,3.26-2.491,6.598-1.678c1.72,0.419,3.849,1.255,6.525,2.438c-6.452-4.11-16.004-8.732-19.601-8.079
		c-3.309,0.735-6.068,2.882-8.416,5.641c-3.363,4.089-10.685,14.241-13.814,28.374c-0.316,3.925-0.2,9.3,0.61,17.045
		c0.957,9.162,2.299,18.399,2.76,28.06c0.46,19.779-10.12,36.8-18.4,53.82c-9.2,17.939-13.34,36.34-16.56,55.658
		c-3.22,18.4-0.92,34.959,8.28,51.98c4.575,9.15,10.179,12.213,16.447,12.178c26.241-18.574,35.201-56.031,35.629-84.836
		c0.017-1.952,0.009-3.886-0.016-5.81c-0.126-9.862-0.608-19.438,0.516-29.836c1.84-18.399,2.164-34.295,14.583-48.555
		c0.225-0.26,0.437-0.515,0.653-0.772c6.8-8.074,9.157-14.616,9.357-22.006C105.663,153.167,103.815,141.051,101.909,135.469z
		 M91.418,154.024c0.154-3.008-2.506-13.399-2.899-15.245c-0.617-2.892,4.197,2.908,5.452,2.741
		c1.356-0.182,3.667-4.058,3.851-2.441C98.911,148.66,94.377,151.19,91.418,154.024z"/>
	<path fill="#F4DEC9" d="M180.577,242.726c0.027,0.008,0.056,0.014,0.084,0.021c1.834,0.477,3.746,0.885,5.722,1.219
		c0.074,0.014,0.146,0.027,0.22,0.039c0.947,0.158,1.91,0.297,2.886,0.42c0.132,0.018,0.266,0.031,0.398,0.049
		c0.906,0.107,1.823,0.203,2.751,0.283c0.092,0.008,0.182,0.018,0.273,0.025c0.961,0.078,1.935,0.135,2.917,0.178
		c0.215,0.01,0.432,0.018,0.649,0.025c0.993,0.037,1.993,0.063,3.005,0.063c0.815,0,1.624-0.016,2.428-0.039
		c0.243-0.008,0.483-0.018,0.726-0.027c0.582-0.023,1.159-0.051,1.733-0.086c0.247-0.014,0.494-0.027,0.74-0.045
		c0.671-0.047,1.337-0.102,1.998-0.164c0.115-0.012,0.232-0.02,0.348-0.029c0.773-0.078,1.537-0.168,2.295-0.266
		c0.2-0.025,0.396-0.055,0.595-0.082c0.569-0.078,1.134-0.162,1.693-0.252c0.227-0.037,0.452-0.074,0.677-0.113
		c0.591-0.102,1.174-0.209,1.752-0.322c0.146-0.029,0.296-0.057,0.441-0.086c0.723-0.148,1.436-0.305,2.138-0.473
		c0.136-0.031,0.268-0.068,0.401-0.1c0.568-0.139,1.128-0.285,1.682-0.436c0.191-0.053,0.382-0.107,0.572-0.16
		c0.532-0.152,1.058-0.309,1.574-0.473c0.143-0.045,0.287-0.088,0.431-0.133c0.661-0.215,1.313-0.436,1.948-0.668
		c0.041-0.016,0.081-0.031,0.122-0.047c0.583-0.215,1.153-0.438,1.715-0.666c0.148-0.061,0.294-0.123,0.441-0.186
		c0.476-0.199,0.941-0.404,1.4-0.613c0.126-0.061,0.255-0.117,0.381-0.176c1.147-0.541,2.234-1.113,3.259-1.713
		c0.105-0.063,0.208-0.125,0.313-0.189c0.409-0.246,0.809-0.498,1.196-0.752c0.106-0.07,0.214-0.141,0.318-0.211
		c0.462-0.313,0.911-0.629,1.34-0.955c0.481-0.365,0.937-0.738,1.374-1.119c0.381-0.332,0.743-0.668,1.09-1.012
		c0.033-0.031,0.066-0.064,0.1-0.098c0.322-0.322,0.628-0.65,0.92-0.98c0.027-0.031,0.057-0.063,0.084-0.092
		c0.63-0.727,1.185-1.473,1.659-2.238c0.015-0.021,0.025-0.045,0.038-0.068c0.207-0.336,0.394-0.676,0.568-1.02
		c0.051-0.102,0.098-0.201,0.146-0.303c0.129-0.271,0.249-0.545,0.358-0.821c0.048-0.121,0.095-0.244,0.14-0.365
		c0.098-0.271,0.184-0.545,0.261-0.82c0.033-0.115,0.069-0.23,0.1-0.346c0.096-0.385,0.178-0.773,0.234-1.164
		c-2.864-0.803-5.643-1.734-8.286-2.898l-0.882-0.117c-1.05-5.358-1.62-10.851-1.909-16.343c0-2.367,0.188-4.92,0.339-7.438
		c-9.382,4.857-20.509,8.386-29.814,11.709c-0.45,0.176-0.896,0.335-1.335,0.484c-0.138,0.047-0.272,0.087-0.408,0.13
		c-0.306,0.1-0.607,0.193-0.907,0.277c-0.15,0.043-0.3,0.084-0.449,0.123c-0.291,0.076-0.578,0.148-0.864,0.213
		c-0.137,0.031-0.276,0.064-0.413,0.092c-0.332,0.07-0.661,0.131-0.987,0.184c-0.08,0.014-0.162,0.031-0.242,0.043
		c-0.414,0.064-0.824,0.115-1.229,0.154c-0.056,0.006-0.11,0.008-0.165,0.012c-0.345,0.031-0.687,0.053-1.024,0.066
		c-0.104,0.004-0.208,0.004-0.312,0.008c-0.294,0.006-0.586,0.006-0.875,0c-0.104-0.002-0.207-0.004-0.31-0.008
		c-0.312-0.012-0.619-0.031-0.924-0.057c-0.069-0.006-0.138-0.008-0.206-0.016c-0.773-0.072-1.532-0.189-2.276-0.35
		c-0.028-0.006-0.056-0.012-0.083-0.018c-0.341-0.074-0.679-0.158-1.015-0.248c-0.053-0.016-0.105-0.031-0.158-0.045
		c-0.326-0.092-0.648-0.189-0.971-0.295c-0.035-0.012-0.072-0.023-0.107-0.035c-1.474-0.495-2.903-1.142-4.308-1.91
		c-3.915,8.927-7.189,22.58-8.885,30.97c0.971,0.43,1.969,0.844,3.015,1.229C176.916,241.679,178.706,242.237,180.577,242.726z"/>
	<g>
		<g>
			<path fill="#F4DEC9" d="M168.677,190.114c11.869,9.232,20.442,19.125,35.609,13.188c18.465-6.594,44.116-13.99,49.024-30.993
				c1.105-3.835,2.354-8.391,3.629-13.148c0.947,7.114,11.916,6.419,15.398,1.196c2.186-3.179,3.18-7.153,5.365-10.333
				c2.385-3.576,4.373-6.756,6.16-10.531c2.584-6.16,5.564-17.486-1.391-21.659c-8.238-4.943-12.314,1.692-15.732,8.068
				c-0.311,0.591-0.627,1.186-0.951,1.783c-0.371,0.696-0.74,1.375-1.107,2.02c-3.242,5.755-21.717-37.216-21.717-37.216
				l-1.357-3.371c-3.903,1.316-7.569,2.455-10.605,3.526c-7.612,2.538-15.226,5.075-22.838,7.612
				c-6.162,1.813-16.119,4.213-20.3,7.25c3.263-8.337,7.975-19.938,14.862-25.737c-11.943,9.836-26.608,17.281-41.028,22.352
				c0.156,0.061,0.314,0.112,0.47,0.176c1.059,0.401,2.101,0.878,3.148,1.344c1.033,0.505,2.071,1.005,3.061,1.56
				c0.503,0.263,0.99,0.547,1.469,0.833c0.48,0.281,0.956,0.559,1.409,0.859c1.836,1.159,3.483,2.376,4.841,3.522
				c0.679,0.574,1.288,1.124,1.815,1.636c0.532,0.504,0.97,0.995,1.335,1.387c0.372,0.381,0.634,0.741,0.824,0.96
				c0.188,0.229,0.28,0.364,0.28,0.364l-0.193,0.39c0,0-0.525-0.231-1.444-0.636c-0.915-0.41-2.236-0.969-3.797-1.689
				c-3.123-1.433-7.289-3.343-11.455-5.254c-2.621-1.244-5.24-2.487-7.599-3.606c-0.455,0.119-0.913,0.237-1.377,0.35
				c-0.154,0.038-0.308,0.076-0.462,0.113c-0.597,0.142-1.197,0.279-1.806,0.414c-0.191,0.042-0.385,0.083-0.578,0.125
				c-0.46,0.1-0.923,0.197-1.389,0.294c-0.224,0.047-0.447,0.095-0.671,0.141c-0.503,0.103-1.007,0.204-1.514,0.306
				c-1.639,0.329-3.296,0.654-4.956,0.997c-0.015,0.003-0.028,0.006-0.044,0.009c0.888,9.725,6.664,41.283,8.465,49.088
				C155.488,172.968,155.488,179.563,168.677,190.114z M247.267,128.434c-0.271,4.194-3.707,10.611-5.596,14.189
				c-8.197,15.526-25.508,10.38-27.53-0.143c-1.167-6.077-2.883-13.447,1.501-20.462c3.164-5.976,16.501-9.798,23.947-7.764
				C245.792,115.95,247.773,120.605,247.267,128.434z M207.09,115.308c0.226-0.223,0.54-0.588,0.975-0.975
				c0.429-0.397,0.941-0.897,1.564-1.391c0.613-0.515,1.307-1.093,2.089-1.664s1.63-1.175,2.563-1.759
				c0.938-0.576,1.936-1.162,2.989-1.724c0.521-0.295,1.065-0.559,1.613-0.835c0.545-0.282,1.104-0.552,1.674-0.806
				c1.13-0.538,2.304-1.018,3.477-1.499c1.19-0.429,2.377-0.865,3.57-1.229c0.593-0.198,1.188-0.369,1.777-0.532
				c0.589-0.168,1.17-0.335,1.752-0.47c1.155-0.297,2.287-0.537,3.367-0.743c1.095-0.186,2.15-0.311,3.125-0.408
				c0.976-0.1,1.886-0.132,2.689-0.16c0.797-0.05,1.515-0.018,2.097-0.008c0.581-0.002,1.055,0.063,1.369,0.078
				c0.317,0.026,0.49,0.054,0.49,0.054l0.13,0.415c0,0-0.589,0.218-1.619,0.598c-1.033,0.373-2.497,0.937-4.271,1.559
				c-0.886,0.314-1.846,0.655-2.861,1.016c-1.006,0.39-2.066,0.8-3.163,1.225c-2.195,0.849-4.536,1.754-6.877,2.659
				c-2.338,0.911-4.677,1.821-6.868,2.676c-2.193,0.849-4.239,1.65-5.978,2.378c-1.74,0.72-3.21,1.273-4.23,1.683
				c-1.023,0.403-1.607,0.633-1.607,0.633l-0.168-0.4C206.757,115.678,206.87,115.542,207.09,115.308z M183.375,163.833
				c0.178-0.221,0.357-0.521,0.582-0.846c0.219-0.328,0.419-0.733,0.676-1.147c0.217-0.439,0.476-0.902,0.696-1.419
				c0.227-0.515,0.459-1.06,0.661-1.64c0.227-0.569,0.396-1.184,0.598-1.795c0.162-0.624,0.357-1.25,0.488-1.893
				c0.657-2.539,0.974-5.16,1.002-7.124c0.015-0.493,0.021-0.941,0.01-1.337c-0.004-0.396-0.004-0.744-0.035-1.034
				c-0.042-0.578-0.067-0.908-0.067-0.908l0.36-0.04c0,0,0.078,0.075,0.201,0.218c0.115,0.144,0.319,0.35,0.506,0.621
				c0.206,0.26,0.437,0.611,0.65,1.043c0.115,0.214,0.216,0.447,0.332,0.697c0.103,0.238,0.188,0.492,0.289,0.76
				c0.196,0.538,0.347,1.124,0.469,1.75c0.133,0.629,0.186,1.286,0.23,1.975c0.025,0.344,0.006,0.688,0.001,1.039
				c-0.001,0.353-0.016,0.709-0.067,1.061c-0.059,0.713-0.198,1.425-0.359,2.133c-0.17,0.704-0.403,1.399-0.658,2.067
				c-0.132,0.337-0.283,0.662-0.439,0.981c-0.145,0.32-0.31,0.633-0.496,0.93c-0.336,0.604-0.74,1.161-1.145,1.668
				c-0.401,0.507-0.862,0.952-1.276,1.343c-0.463,0.38-0.87,0.709-1.295,0.96c-0.424,0.252-0.803,0.438-1.135,0.57
				c-0.327,0.137-0.619,0.196-0.796,0.25c-0.184,0.048-0.288,0.063-0.288,0.063l-0.259-0.254
				C182.811,164.524,183.016,164.273,183.375,163.833z M223.169,175.042c-9.026,9.708-19.878,13.555-27.393,13.029
				c-8.517-0.596-18.562-10.916-21.192-13.631C182.42,177.25,204.824,179.637,223.169,175.042z M158.03,115.582
				c5.06-1.897,14.918,3.159,17.447,5.689c1.205,1.1,2.141,2.296,2.853,3.562c2.844,5.048,2.141,11.196,0.875,16.745
				c-2.193,9.616-13.796,14.183-22.7,1.195c-2.474-3.709-4.431-9.534-4.678-14.889C151.569,122.284,153.18,117.198,158.03,115.582z"
				/>
		</g>
	</g>
	<g>
		<path fill="#C4AC9F" d="M151.531,157.801c-1.507-6.532-5.799-29.702-7.678-42.785c-2.285-1.222-5.06-1.249-8.609,0.882
			c-6.954,4.172-3.975,15.499-1.391,21.659c1.788,3.775,3.775,6.955,6.159,10.531c2.187,3.18,3.18,7.153,5.365,10.333
			c1.507,2.26,4.416,3.67,7.309,3.969C152.332,160.947,151.955,159.425,151.531,157.801z"/>
	</g>
	<path fill="#C4AC9F" d="M37.341,117.236c-1.337,4.545-0.958,8.312,0.311,11.935c3.129-14.133,10.451-24.285,13.814-28.374
		C45.534,103.034,38.808,112.468,37.341,117.236z"/>
	<path fill-rule="evenodd" clip-rule="evenodd" fill="#C4AC9F" d="M91.418,154.024c0.154-3.008-2.506-13.399-2.899-15.245
		c-0.617-2.892,4.197,2.908,5.452,2.741c1.356-0.182,3.667-4.058,3.851-2.441C98.911,148.66,94.377,151.19,91.418,154.024z"/>
	<polygon fill="#C4AC9F" points="181.087,208.858 181.089,208.859 181.089,208.859 	"/>
	<path fill="#C4AC9F" d="M157.755,225.143c0.04,0.279,0.086,0.557,0.147,0.832c0.032,0.146,0.069,0.291,0.107,0.438
		c0.068,0.262,0.146,0.521,0.231,0.779c0.048,0.141,0.095,0.283,0.147,0.422c0.103,0.275,0.219,0.548,0.342,0.819
		c0.053,0.115,0.1,0.232,0.155,0.348c0.377,0.771,0.834,1.525,1.367,2.262c0.072,0.1,0.152,0.197,0.228,0.297
		c0.202,0.268,0.412,0.531,0.634,0.793c0.102,0.117,0.206,0.236,0.311,0.354c0.217,0.242,0.441,0.482,0.674,0.719
		c2.496,2.545,5.942,4.797,10.103,6.637c1.695-8.391,4.971-22.051,8.888-30.982c0,0-0.001,0-0.002-0.001
		c0.001,0,0.002,0.001,0.002,0.001l0,0c5.673,3.099,11.743,4.255,19.568,1.193c9.306-3.323,20.433-6.852,29.814-11.709
		c0.104-1.729,0.188-3.436,0.189-5.061c-8.581,4.01-18.184,7.095-26.375,10.02c-14.047,5.497-22.438-2.581-33.03-11.138
		c-0.572,2.648-0.754,5.792-0.921,8.952c0.03,0.024,0.062,0.05,0.093,0.074c-0.031-0.023-0.062-0.049-0.092-0.073
		c-0.118,2.232-0.23,4.472-0.472,6.551c-0.373,2.204-0.795,4.403-1.272,6.584l-1.861,0.307c-2.346,0.938-4.706,1.703-7.079,2.348
		c-1.311,2.086-2.027,4.309-2.027,6.62c0,0.412,0.028,0.82,0.073,1.229C157.712,224.885,157.737,225.014,157.755,225.143z"/>
	<path fill="#C4AC9F" d="M188.346,144.65c0,0,0.078,0.075,0.201,0.218c0.115,0.144,0.319,0.35,0.506,0.621
		c0.206,0.26,0.437,0.611,0.65,1.043c0.115,0.214,0.216,0.447,0.332,0.697c0.103,0.238,0.188,0.492,0.289,0.76
		c0.196,0.538,0.347,1.124,0.469,1.75c0.133,0.629,0.186,1.286,0.23,1.975c0.025,0.344,0.006,0.688,0.001,1.039
		c-0.001,0.353-0.016,0.709-0.067,1.061c-0.059,0.713-0.198,1.425-0.359,2.133c-0.17,0.704-0.403,1.399-0.658,2.067
		c-0.132,0.337-0.283,0.662-0.439,0.981c-0.145,0.32-0.31,0.633-0.496,0.93c-0.336,0.604-0.74,1.161-1.145,1.668
		c-0.401,0.507-0.862,0.952-1.276,1.343c-0.463,0.38-0.87,0.709-1.295,0.96c-0.424,0.252-0.803,0.438-1.135,0.57
		c-0.327,0.137-0.619,0.196-0.796,0.25c-0.184,0.048-0.288,0.063-0.288,0.063l-0.259-0.254c0,0,0.205-0.251,0.564-0.691
		c0.178-0.221,0.357-0.521,0.582-0.846c0.219-0.328,0.419-0.733,0.676-1.147c0.217-0.439,0.476-0.902,0.696-1.419
		c0.227-0.515,0.459-1.06,0.661-1.64c0.227-0.569,0.396-1.184,0.598-1.795c0.162-0.624,0.357-1.25,0.488-1.893
		c0.657-2.539,0.974-5.16,1.002-7.124c0.015-0.493,0.021-0.941,0.01-1.337c-0.004-0.396-0.004-0.744-0.035-1.034
		c-0.042-0.578-0.067-0.908-0.067-0.908L188.346,144.65z"/>
	<path fill="#C4AC9F" d="M90.359,123.611c-5.849-0.622-11.712,1.891-9.76,2.001c12.774,0.726,16.428,2.488,18.621,4.801
		c-0.008-0.905-0.084-1.763-0.223-2.575C96.641,124.763,93.565,123.952,90.359,123.611z"/>
	<path fill="#C4AC9F" d="M93.634,117.322c-2.621-1.994-6.759-4.436-9.199-5.086c-6.779-1.808-15.365,1.085-11.298,1.175
		c4.067,0.09,17.173,2.982,21.015,6.197C94.039,118.808,93.857,118.05,93.634,117.322z"/>
	<path fill="#C4AC9F" d="M66.359,102.474c5.302,0.157,13.599,2.352,18.037,4.208c-0.091-0.04-0.178-0.081-0.271-0.12
		c-1.124-0.966-2.739-2.119-4.619-3.316c-2.687-1.188-4.824-2.029-6.549-2.449C69.619,99.983,61.026,102.317,66.359,102.474z"/>
	<path fill="#C4AC9F" d="M78.079,305.575c-0.966-5.316-5.097-28.021-12.388-28.684c0.004-0.045,0.009-0.094,0.014-0.139
		c0.497-4.723,0.676-9.248,0.713-13.678l0,0c-0.428,28.805-9.388,66.262-35.629,84.836c8.859-0.053,19.047-6.299,29.552-10.338
		c7.489-3.053,12.636-6.643,15.624-11.305C79.343,320.997,79.96,314.356,78.079,305.575z"/>
	<g>
		<g>
			<path fill="#3D3D3D" d="M281.979,236.427c-12.617-6.793-27.623-7.613-40.768-11.286c-1.605,11.13-19.667,19.907-41.729,19.907
				c-23.116,0-41.857-9.637-41.857-21.521c0-2.312,0.717-4.534,2.027-6.62c-18.551,5.052-37.819,2.471-56.16,12.428
				c-11.821,5.91-22.458,14.184-33.097,21.866c-1.687,1.125-3.004,1.914-4.05,2.578c0.021,1.16,0.042,2.32,0.057,3.486
				c0.082,6.286,0.019,12.685-0.697,19.487c-0.005,0.045-0.01,0.094-0.014,0.139c7.291,0.662,11.422,23.367,12.388,28.684
				c1.882,8.781,1.265,15.422-2.114,20.693c-2.988,4.662-8.135,8.252-15.624,11.305c5.361,8.934,13.368,5.846,21.245,0.496
				c-0.004-0.018-0.006-0.035-0.01-0.053c0.915-0.6,1.821-1.213,2.708-1.863c1.117-0.818,2.216-1.66,3.316-2.5
				c0.03-0.023,0.059-0.047,0.088-0.07c0.376-0.287,0.744-0.57,1.114-0.857c0.341-0.262,0.678-0.523,1.015-0.781
				c0.003-0.004,0.008-0.006,0.011-0.01c0.73-0.561,1.449-1.109,2.155-1.639h0c0.287-0.221,0.572-0.443,0.859-0.662
				c5.101-3.891,10.294-8.584,16.561-10.465c0.709-0.254,1.419-0.51,2.132-0.754c1.014-0.352,1.816-0.605,2.464-0.752
				c0.374-0.088,0.772-0.156,1.158-0.139c0.234,0.01,0.44,0.049,0.623,0.121h0c0.099,0.039,0.192,0.09,0.279,0.15
				c0,0,0.001,0,0.001,0h0c0.069,0.049,0.136,0.104,0.199,0.164c0.003,0.002,0.006,0.004,0.009,0.006
				c0.063,0.063,0.123,0.129,0.181,0.203c0.001,0.002,0.003,0.004,0.005,0.006c0.063,0.082,0.123,0.174,0.181,0.271
				c0.451,0.674,0.655,1.518,0.905,2.27c0.419,1.264,0.84,2.527,1.319,3.771c0.355,1.068,0.722,2.135,1.087,3.199
				c0,0.002,0,0.002,0.001,0.004c0,0.002,0.001,0.004,0.002,0.008c3.03,8.756,6.512,17.34,10.639,25.641
				c0.862,1.732,1.751,3.453,2.633,5.178c1.13,2.143,2.231,4.389,3.295,6.719c0.019,0.041,0.039,0.08,0.058,0.121
				c0.011,0.023,0.02,0.045,0.03,0.068c0.443,0.977,0.878,1.969,1.306,2.971c0.059,0.135,0.115,0.27,0.173,0.406
				c0.002,0.004,0.004,0.01,0.007,0.014c0.585,1.385,1.156,2.791,1.708,4.219c0.003,0.006,0.005,0.012,0.007,0.018
				c0.011,0.027,0.022,0.057,0.033,0.084c0.378,0.98,0.749,1.969,1.109,2.967c0.196,0.531,0.402,1.061,0.592,1.594
				c2.722,7.691,4.833,15.619,6.003,23.697c0.406,2.801,0.685,5.621,0.844,8.447c0.077,1.238,0.126,2.467,0.148,3.684
				c0,0.002,0,0.004,0,0.006s0,0.006,0,0.01c0.014,0.723,0.016,1.441,0.009,2.156c0,0.008,0,0.016,0,0.025
				c-0.007,0.711-0.024,1.416-0.052,2.119c-0.001,0.004-0.001,0.01-0.002,0.014c-0.056,1.416-0.155,2.813-0.299,4.184v0.002
				c-0.048,0.455-0.098,0.908-0.155,1.357c-0.009,0.076-0.016,0.152-0.025,0.227c-0.034,0.258-0.018,1.16-0.19,1.334v0.002
				c-0.055,0.346-0.11,0.686-0.165,1.027c0,0.006-0.001,0.012-0.002,0.018c-0.011,0.068-0.022,0.137-0.034,0.205
				c-0.001,0.011-0.003,0.021-0.005,0.03l156.985-156.983C302.839,255.957,298.776,245.012,281.979,236.427z"/>
		</g>
	</g>
	<g>
		<path fill="#3D3D3D" d="M289.207,279.622c-0.102-1.156,0.515,0.338,1.565,3.461l13.826-13.826
			c-1.759-13.3-5.822-24.245-22.62-32.83c-12.617-6.793-27.623-7.613-40.768-11.286c-1.605,11.13-19.667,19.907-41.729,19.907
			c-23.116,0-41.857-9.637-41.857-21.521c0-2.312,0.717-4.534,2.027-6.62c-18.551,5.052-37.819,2.471-56.16,12.428
			c-11.821,5.91-22.458,14.184-33.097,21.866c-1.687,1.125-3.004,1.914-4.05,2.578c0.021,1.16,0.042,2.32,0.057,3.486
			c0.082,6.286,0.019,12.685-0.697,19.487c-0.005,0.045-0.01,0.094-0.014,0.139c7.291,0.662,11.422,23.367,12.388,28.684
			c1.882,8.781,1.265,15.422-2.114,20.693c12.886-12.865,33.202-26.25,39.504-28.596c7.196-2.676,14.973-2.973,18.829-2.621
			c2.064,0.189,3.878,0.98,5.625,2.055c0.307,0.188,0.612,0.379,0.927,0.555c1.608,0.898,2.732,2.111,3.757,3.65
			c0.934,1.402,1.727,2.889,2.534,4.365c0.887,1.625,1.749,3.17,2.281,4.961c1.296,4.361,2.267,8.861,3.259,13.301
			c4.113,18.402,6.58,37.322,5.528,56.203c-0.522,9.361-1.89,18.67-4.053,27.795c-1.307,5.513-2.884,10.953-4.592,16.354
			l140.01-140.009C289.404,282.006,289.273,280.374,289.207,279.622z"/>
	</g>
	<g>
		<path fill="#282828" d="M289.207,279.622c0.066,0.752,0.197,2.384,0.367,4.659l1.199-1.198
			C289.722,279.96,289.105,278.466,289.207,279.622z"/>
	</g>
	<g>
		<path fill="#282828" d="M154.156,407.937c2.163-9.125,3.53-18.434,4.053-27.795c1.052-18.881-1.415-37.801-5.528-56.203
			c-0.992-4.439-1.963-8.939-3.259-13.301c-0.532-1.791-1.395-3.336-2.281-4.961c-0.808-1.477-1.601-2.963-2.534-4.365
			c-1.024-1.539-2.148-2.752-3.757-3.65c-0.314-0.176-0.62-0.367-0.927-0.555c-1.747-1.074-3.561-1.865-5.625-2.055
			c-3.855-0.352-11.632-0.055-18.829,2.621c-6.302,2.346-26.619,15.73-39.504,28.596c-2.988,4.662-8.135,8.252-15.624,11.305
			c5.361,8.934,13.368,5.846,21.245,0.496c-0.004-0.018-0.006-0.035-0.01-0.053c0.915-0.6,1.821-1.213,2.708-1.863
			c1.117-0.818,2.216-1.66,3.316-2.5c0.03-0.023,0.059-0.047,0.088-0.07c0.376-0.287,0.744-0.57,1.114-0.857
			c0.341-0.262,0.678-0.523,1.015-0.781c0.003-0.004,0.008-0.006,0.011-0.01c0.73-0.561,1.449-1.109,2.155-1.639h0
			c0.287-0.221,0.572-0.443,0.859-0.662c5.101-3.891,10.294-8.584,16.561-10.465c0.709-0.254,1.419-0.51,2.132-0.754
			c1.014-0.352,1.816-0.605,2.464-0.752c0.374-0.088,0.772-0.156,1.158-0.139c0.234,0.01,0.44,0.049,0.623,0.121h0
			c0.099,0.039,0.192,0.09,0.279,0.15c0,0,0.001,0,0.001,0h0c0.069,0.049,0.136,0.104,0.199,0.164
			c0.003,0.002,0.006,0.004,0.009,0.006c0.063,0.063,0.123,0.129,0.181,0.203c0.001,0.002,0.003,0.004,0.005,0.006
			c0.063,0.082,0.123,0.174,0.181,0.271c0.451,0.674,0.655,1.518,0.905,2.27c0.419,1.264,0.84,2.527,1.319,3.771
			c0.355,1.068,0.722,2.135,1.087,3.199c0,0.002,0,0.002,0.001,0.004c0,0.002,0.001,0.004,0.002,0.008
			c3.03,8.756,6.512,17.34,10.639,25.641c0.862,1.732,1.751,3.453,2.633,5.178c1.13,2.143,2.231,4.389,3.295,6.719
			c0.019,0.041,0.039,0.08,0.058,0.121c0.011,0.023,0.02,0.045,0.03,0.068c0.443,0.977,0.878,1.969,1.306,2.971
			c0.059,0.135,0.115,0.27,0.173,0.406c0.002,0.004,0.004,0.01,0.007,0.014c0.585,1.385,1.156,2.791,1.708,4.219
			c0.003,0.006,0.005,0.012,0.007,0.018c0.011,0.027,0.022,0.057,0.033,0.084c0.378,0.98,0.749,1.969,1.109,2.967
			c0.196,0.531,0.402,1.061,0.592,1.594c2.722,7.691,4.833,15.619,6.003,23.697c0.406,2.801,0.685,5.621,0.844,8.447
			c0.077,1.238,0.126,2.467,0.148,3.684c0,0.002,0,0.004,0,0.006s0,0.006,0,0.01c0.014,0.723,0.016,1.441,0.009,2.156
			c0,0.008,0,0.016,0,0.025c-0.007,0.711-0.024,1.416-0.052,2.119c-0.001,0.004-0.001,0.01-0.002,0.014
			c-0.056,1.416-0.155,2.813-0.299,4.184v0.002c-0.048,0.455-0.098,0.908-0.155,1.357c-0.009,0.076-0.016,0.152-0.025,0.227
			c-0.034,0.258-0.018,1.16-0.19,1.334v0.002c-0.055,0.346-0.11,0.686-0.165,1.027c0,0.006-0.001,0.012-0.002,0.018
			c-0.011,0.068-0.022,0.137-0.034,0.205c-0.001,0.011-0.003,0.021-0.005,0.03l1.951-1.95
			C151.271,418.89,152.849,413.449,154.156,407.937z"/>
	</g>
	<g>
		<path fill="#282828" d="M147.372,427.712c-0.006,0.031-0.01,0.063-0.016,0.094c-0.001,0-0.001,0.002-0.001,0.004s0,0.004,0,0.004
			c-0.388,2.309-0.685,4.697-1.252,6.969c1.185-3.485,2.35-6.98,3.46-10.492l-1.951,1.95c-0.075,0.465-0.15,0.925-0.227,1.382
			C147.381,427.651,147.376,427.683,147.372,427.712z"/>
	</g>
	<path fill="#3D3D3D" d="M174.584,174.44c2.631,2.715,12.676,13.035,21.192,13.631c7.515,0.525,18.366-3.321,27.393-13.029
		C204.824,179.637,182.42,177.25,174.584,174.44z"/>
	<path fill="#3D3D3D" d="M174.584,174.44c2.631,2.715,12.676,13.035,21.192,13.631c7.515,0.525,18.366-3.321,27.393-13.029
		C204.824,179.637,182.42,177.25,174.584,174.44z M214.184,180.868c-12.45,2.528-26.404,0.677-31.707-0.479
		c-2.588-2.059-3.96-3.782-3.465-3.563c7.052,3.116,34.415,2.215,38.833,0.683C218.7,177.21,217.12,178.88,214.184,180.868z"/>
	<path fill="#FFFFFF" d="M217.845,177.507c-4.418,1.532-31.781,2.434-38.833-0.683c-0.495-0.219,0.877,1.505,3.465,3.563
		c5.303,1.156,19.257,3.008,31.707,0.479C217.12,178.88,218.7,177.21,217.845,177.507z"/>
	<g>
		<path fill="#FFFFFF" d="M239.589,114.255c-1.662-0.454-3.619-0.614-5.69-0.526c-4.662,0.199-9.902,1.669-13.69,3.939
			c-2.064,1.238-3.699,2.713-4.566,4.351c-4.384,7.015-2.668,14.385-1.501,20.462c2.022,10.522,19.333,15.669,27.53,0.143
			c1.889-3.578,5.325-9.995,5.596-14.189C247.773,120.605,245.792,115.95,239.589,114.255z"/>
		<path fill="#FFFFFF" d="M175.477,121.271c-0.442-0.443-1.113-0.964-1.939-1.511c-3.576-2.364-10.128-5.223-14.41-4.47
			c-0.385,0.067-0.754,0.162-1.098,0.291c-4.85,1.616-6.461,6.702-6.203,12.303c0.247,5.354,2.204,11.18,4.678,14.889
			c8.904,12.987,20.507,8.421,22.7-1.195c1.266-5.549,1.969-11.697-0.875-16.745C177.618,123.567,176.682,122.371,175.477,121.271z"
			/>
	</g>
	<g>
		<path fill="#FFFFFF" d="M239.589,114.255c-1.662-0.454-3.619-0.614-5.69-0.526c1.332,3.285,2.144,7.627,2.144,12.391
			c0,10.245-3.751,18.55-8.377,18.55s-8.377-8.305-8.377-18.55c0-3.045,0.334-5.916,0.92-8.451
			c-2.064,1.238-3.699,2.713-4.566,4.351c-4.384,7.015-2.668,14.385-1.501,20.462c2.022,10.522,19.333,15.669,27.53,0.143
			c1.889-3.578,5.325-9.995,5.596-14.189C247.773,120.605,245.792,115.95,239.589,114.255z"/>
	</g>
	<g>
		<path fill="#FFFFFF" d="M178.33,124.833c-0.712-1.266-1.647-2.462-2.853-3.562c-0.442-0.443-1.113-0.964-1.939-1.511
			c0.229,1.657,0.354,3.416,0.354,5.239c0,9.825-3.598,17.79-8.034,17.79s-8.034-7.965-8.034-17.79c0-3.584,0.48-6.917,1.304-9.709
			c-0.385,0.067-0.754,0.162-1.098,0.291c-4.85,1.616-6.461,6.702-6.203,12.303c0.247,5.354,2.204,11.18,4.678,14.889
			c8.904,12.987,20.507,8.421,22.7-1.195C180.47,136.029,181.173,129.88,178.33,124.833z"/>
	</g>
	<g>
		<path fill="#4067B1" d="M159.127,115.291c-0.823,2.792-1.304,6.125-1.304,9.709c0,9.825,3.598,17.79,8.034,17.79
			s8.034-7.965,8.034-17.79c0-1.823-0.125-3.582-0.354-5.239C169.961,117.396,163.41,114.538,159.127,115.291z M169.009,126.742
			c-0.18,0.055-0.365,0.089-0.556,0.089c-1.398,0-2.53-1.525-2.53-3.406c0-1.191,0.457-2.237,1.145-2.846
			c0.398-0.352,0.873-0.561,1.386-0.561c1.396,0,2.528,1.525,2.528,3.406C170.982,125.047,170.138,126.399,169.009,126.742z"/>
		<path fill="#4067B1" d="M233.899,113.729c-4.662,0.199-9.902,1.669-13.69,3.939c-0.586,2.535-0.92,5.406-0.92,8.451
			c0,10.245,3.751,18.55,8.377,18.55s8.377-8.305,8.377-18.55C236.042,121.356,235.231,117.014,233.899,113.729z M230.667,126.115
			c-0.22,0.073-0.446,0.125-0.685,0.125c-1.565,0-2.836-1.711-2.836-3.82c0-0.796,0.18-1.533,0.49-2.146
			c0.51-1.01,1.37-1.675,2.346-1.675c1.568,0,2.838,1.71,2.838,3.82C232.821,124.209,231.902,125.701,230.667,126.115z"/>
	</g>
	<path fill="#4067B1" d="M173.538,119.76c-3.576-2.364-10.128-5.223-14.41-4.47c-0.823,2.792-1.304,6.125-1.304,9.709
		c0,9.825,3.598,17.79,8.034,17.79s8.034-7.965,8.034-17.79C173.892,123.176,173.767,121.417,173.538,119.76z M169.009,126.742
		c0.002,0.1,0.008,0.196,0.008,0.298c0,3.862-1.415,6.994-3.159,6.994s-3.158-3.132-3.158-6.994c0-3.863,1.414-6.995,3.158-6.995
		c0.429,0,0.838,0.191,1.21,0.534c0.398-0.352,0.873-0.561,1.386-0.561c1.396,0,2.528,1.525,2.528,3.406
		C170.982,125.047,170.138,126.399,169.009,126.742z"/>
	<path fill="#4067B1" d="M233.899,113.729c-4.662,0.199-9.902,1.669-13.69,3.939c-0.586,2.535-0.92,5.406-0.92,8.451
		c0,10.245,3.751,18.55,8.377,18.55s8.377-8.305,8.377-18.55C236.042,121.356,235.231,117.014,233.899,113.729z M230.667,126.115
		c0.042,0.463,0.065,0.941,0.065,1.432c0,4.027-1.475,7.293-3.294,7.293c-1.818,0-3.294-3.266-3.294-7.293
		c0-4.028,1.476-7.294,3.294-7.294c0.066,0,0.132,0.014,0.198,0.021c0.51-1.01,1.37-1.675,2.346-1.675
		c1.568,0,2.838,1.71,2.838,3.82C232.821,124.209,231.902,125.701,230.667,126.115z"/>
	<path fill="#3D3D3D" d="M168.454,126.831c-1.398,0-2.53-1.525-2.53-3.406c0-1.191,0.457-2.237,1.145-2.846
		c-0.372-0.343-0.781-0.534-1.21-0.534c-1.744,0-3.158,3.132-3.158,6.995c0,3.862,1.414,6.994,3.158,6.994s3.159-3.132,3.159-6.994
		c0-0.102-0.006-0.198-0.008-0.298C168.83,126.796,168.644,126.831,168.454,126.831z"/>
	<path fill="#3D3D3D" d="M229.983,126.24c-1.565,0-2.836-1.711-2.836-3.82c0-0.796,0.18-1.533,0.49-2.146
		c-0.066-0.008-0.132-0.021-0.198-0.021c-1.818,0-3.294,3.266-3.294,7.294c0,4.027,1.476,7.293,3.294,7.293
		c1.819,0,3.294-3.266,3.294-7.293c0-0.49-0.023-0.969-0.065-1.432C230.448,126.188,230.221,126.24,229.983,126.24z"/>
	<ellipse fill="#FFFFFF" cx="168.453" cy="123.424" rx="2.529" ry="3.406"/>
	<ellipse fill="#FFFFFF" cx="229.984" cy="122.419" rx="2.837" ry="3.82"/>
	<path fill="#665244" d="M275.93,55.272h-0.002c-0.223-15.58-11.924-29.683-22.089-34.765c-11.962-5.8-34.437-3.263-41.688-15.95
		c1.088,6.162,6.163,10.15,9.788,14.862c-1.813-1.087-3.625-1.087-5.8-1.45c-15.588-1.449-31.538,0-46.038,5.438
		c-13.05,5.075-30.449,15.588-44.587,14.862c5.075,3.625,13.261,5.438,19.424,7.25c-5.542,4.327-10.902,7.002-17.501,11.159
		c-8.848,5.572-18.235,18.929-28.747,25.453c10.487-0.824,11.962-2.175,22.837-3.987c-3.263,11.601-9.425,21.75-11.238,34.075
		c6.888-9.787,19.938-22.475,30.812-27.188c-9.425,9.787-15.225,24.287-22.837,35.524c8.405-10.667,24.877-11.248,37.6-14.59
		c2.358,1.119,4.977,2.362,7.597,3.605c4.166,1.911,8.332,3.821,11.455,5.254c1.561,0.721,2.882,1.279,3.797,1.689
		c0.919,0.404,1.444,0.636,1.444,0.636l0.192-0.39c0,0-0.092-0.135-0.279-0.364c-0.19-0.219-0.452-0.579-0.824-0.96
		c-0.365-0.392-0.803-0.883-1.335-1.387c-0.527-0.512-1.137-1.062-1.815-1.636c-1.357-1.146-3.005-2.363-4.841-3.522
		c-0.453-0.301-0.929-0.578-1.409-0.859c-0.479-0.286-0.966-0.57-1.469-0.833c-0.989-0.555-2.027-1.055-3.061-1.56
		c-1.048-0.466-2.09-0.942-3.148-1.344c-0.111-0.046-0.296-0.121-0.45-0.184c14.414-5.069,29.071-12.513,41.009-22.344
		c-6.888,5.8-11.6,17.4-14.862,25.737c4.181-3.037,14.138-5.438,20.3-7.25c7.612-2.537,15.226-5.074,22.838-7.612
		c3.042-1.073,6.718-2.215,10.632-3.535c-0.009,0.003-0.018,0.006-0.026,0.009l1.357,3.371c0,0,18.476,42.971,21.717,37.216
		C282.113,98.761,280.031,76.624,275.93,55.272z"/>
	<path fill="#A88E80" d="M275.93,55.272h-0.002c0.063,4.421-0.793,8.96-2.877,13.447c-5.303,10.655-19.496,16.367-31.444,20.398
		l1.357,3.371c0,0,18.476,42.971,21.717,37.216C282.113,98.761,280.031,76.624,275.93,55.272z"/>
	<path fill="#665244" d="M206.757,115.678c0,0,0.112-0.137,0.333-0.37c0.226-0.223,0.54-0.588,0.975-0.975
		c0.429-0.397,0.941-0.897,1.564-1.391c0.613-0.515,1.307-1.093,2.089-1.664s1.63-1.175,2.563-1.759
		c0.938-0.576,1.936-1.162,2.989-1.724c0.521-0.295,1.065-0.559,1.613-0.835c0.545-0.282,1.104-0.552,1.674-0.806
		c1.13-0.538,2.304-1.018,3.477-1.499c1.19-0.429,2.377-0.865,3.57-1.229c0.593-0.198,1.188-0.369,1.777-0.532
		c0.589-0.168,1.17-0.335,1.752-0.47c1.155-0.297,2.287-0.537,3.367-0.743c1.095-0.186,2.15-0.311,3.125-0.408
		c0.976-0.1,1.886-0.132,2.689-0.16c0.797-0.05,1.515-0.018,2.097-0.008c0.581-0.002,1.055,0.063,1.369,0.078
		c0.317,0.026,0.49,0.054,0.49,0.054l0.13,0.415c0,0-0.589,0.218-1.619,0.598c-1.033,0.373-2.497,0.937-4.271,1.559
		c-0.886,0.314-1.846,0.655-2.861,1.016c-1.006,0.39-2.066,0.8-3.163,1.225c-2.195,0.849-4.536,1.754-6.877,2.659
		c-2.338,0.911-4.677,1.821-6.868,2.676c-2.193,0.849-4.239,1.65-5.978,2.378c-1.74,0.72-3.21,1.273-4.23,1.683
		c-1.023,0.403-1.607,0.633-1.607,0.633L206.757,115.678z"/>
	<g>
		<path fill="#665244" d="M273.051,68.719c-7.035,14.138-29.724,19.575-42.049,23.925c-7.612,2.538-15.226,5.075-22.838,7.612
			c-6.162,1.813-16.119,4.213-20.3,7.25c3.263-8.337,7.975-19.938,14.862-25.737c-12.325,10.15-27.55,17.763-42.412,22.838
			c-13.05,4.712-32.625,3.987-42.05,15.949c7.612-11.237,13.412-25.737,22.837-35.524c-10.875,4.713-23.924,17.4-30.812,27.188
			c1.813-12.325,7.975-22.475,11.238-34.075c-10.875,1.813-12.351,3.163-22.837,3.987c10.512-6.524,19.899-19.881,28.747-25.453
			c6.599-4.157,11.959-6.832,17.501-11.159c-6.163-1.813-14.349-3.625-19.424-7.25l0,0c14.138,0.726,31.537-9.787,44.587-14.862
			c14.5-5.438,30.45-6.887,46.038-5.438c2.175,0.363,3.987,0.363,5.8,1.45c-3.625-4.712-8.7-8.7-9.788-14.862l0,0
			c7.251,12.688,29.726,10.15,41.688,15.95C266.889,27.032,282.475,48.419,273.051,68.719z"/>
	</g>
	<path fill="#665244" d="M179.246,115.437c-0.365-0.392-0.803-0.883-1.335-1.387c-0.527-0.512-1.137-1.062-1.815-1.636
		c-1.357-1.146-3.005-2.363-4.841-3.522c-0.453-0.301-0.929-0.578-1.409-0.859c-0.479-0.286-0.966-0.57-1.469-0.833
		c-0.989-0.555-2.027-1.055-3.061-1.56c-1.048-0.466-2.09-0.942-3.148-1.344c-0.155-0.063-0.313-0.115-0.47-0.176
		c-0.462,0.162-0.924,0.329-1.384,0.486c-1.412,0.51-2.905,0.954-4.45,1.359c2.358,1.119,4.977,2.362,7.597,3.605
		c4.166,1.911,8.332,3.821,11.455,5.254c1.561,0.721,2.882,1.279,3.797,1.689c0.919,0.404,1.444,0.636,1.444,0.636l0.192-0.39
		c0,0-0.092-0.135-0.279-0.364C179.879,116.178,179.618,115.818,179.246,115.437z"/>
</g>
<g id="Layer_6">
	<path fill="#303030" d="M93.13,480.723h231.355c29.886,0,54.341-24.454,54.341-54.333V195.031L93.13,480.723"/>
</g>
</svg>
