<?xml version="1.0" encoding="utf-8"?>
<!-- Generator: Adobe Illustrator 16.0.0, SVG Export Plug-In . SVG Version: 6.00 Build 0)  -->
<!DOCTYPE svg PUBLIC "-//W3C//DTD SVG 1.1//EN" "http://www.w3.org/Graphics/SVG/1.1/DTD/svg11.dtd">
<svg version="1.1" id="Layer_1" xmlns="http://www.w3.org/2000/svg" xmlns:xlink="http://www.w3.org/1999/xlink" x="0px" y="0px"
	 width="964.355px" height="1420.586px" viewBox="0 0 964.355 1420.586" enable-background="new 0 0 964.355 1420.586"
	 xml:space="preserve">
<path fill="#FFFFFF" d="M75.163,311.231C56,390,43.881,559.139,42.94,588.069c-0.941,28.93,7.747,57.126,13.403,69.026
	C61.999,668.999,44.107,719,51.054,753c6.947,34,51.017,231.691,106.981,285.346C213.999,1092.001,232.83,1183,232.83,1183
	l284.837-19L792,841.479L771,582l-70-251.883L600,203l-214.756-59L102,222"/>
<g>
	<path fill="#DDDDDD" d="M484.521,984.264c-1.246-0.464-2.493-0.931-4.365-1.627c3.815-3.418,3.751-6.572,0.959-10.308
		c-0.855-1.146-0.283-4.414,0.868-5.425c1.004-0.882,3.86-0.322,5.682,0.253c2.551,0.806,4.902,2.22,7.434,3.419
		c1.457-5.896,0.646-6.688-4.354-7.665c-1.601-0.313-3.33-2.771-3.938-4.563c-0.632-1.872-3.954-4.473,0.328-6.195
		c1.368,2.092,2.736,4.185,4.103,6.276c1.704-1.781,3.524-3.475,5.063-5.38c0.699-0.867,0.787-2.172,1.247-3.242
		c1.777-4.138,1.073-5.047-4.117-5.228c0.993,9.218,0.925,9.297-6.377,7.632c-3.621-5.014-7.243-10.026-10.864-15.04
		c-0.802,0.338-1.606,0.675-2.408,1.014c1.854,6.587,9.655,11.94,5.652,20.353c-5.143-5.988-10.645-11.564-20.045-8.817
		c-0.125-1.848-0.26-3.864-0.501-7.431c-2.607,2.725-4.203,4.39-5.244,5.475c-3.409-0.847-6.381-1.091-8.846-2.301
		c-4.593-2.255-9.333-4.584-13.173-7.806c-3.182-2.67-5.944-2.515-9.483-1.937c-5.454,0.891-11.042,2.012-16.476,1.595
		c-2.125-0.165-3.983-4.233-6.382-7.009c-2.669,1.638-4.746-0.06-7.239-2.856c-1.717-1.93-5.019-2.962-7.795-3.559
		c-8.229-1.773-16.573-3.021-24.821-4.708c-3.011-0.617-5.83-2.374-8.84-2.739c-2.93-0.357-5.984,0.48-8.993,0.629
		c-1.426,0.07-3.081,0.141-4.284-0.451c-6.072-2.989-12.188-5.017-19.037-2.958c-1.076,0.324-2.54,0.37-3.542-0.067
		c-8.616-3.75-17.405-5.063-26.735-3.325c-2.936,0.548-6.169-0.394-9.261-0.395c-3.966-0.003-7.927,0.255-11.096,0.37
		c-4.696-1.273-8.917-2.524-13.196-3.546c-3.542-0.844-7.156-1.386-10.729-2.108c-3.749-0.758-7.461-1.739-11.234-2.317
		c-5.745-0.882-10.846,2.614-17.292,1.001c-4.837-1.213-10.992,1.936-16.346,3.714c-5.168,1.716-10.046,4.196-15.088,6.264
		c-1.556,0.638-3.217,1.06-4.85,1.518c-1.969,0.552-4.312,0.567-5.88,1.637c-5.964,4.059-11.679,8.446-16.962,12.326
		c-1.078-1.481-2.437-5.315-4.617-5.842c-2.566-0.623-5.844,1.62-10.138,3.068c1.241-1.886,1.786-3.053,2.643-3.946
		c1.938-2.02,3.914-4.034,6.085-5.814c3.567-2.925,3.294-6.188,2.375-10.346c-0.573-2.601,0.656-6.53,2.6-8.426
		c5.748-5.607,12.806-9.032,21.048-11.193c6.301-1.653,9.923-0.521,13.133,4.851c3.332-1.846,6.264-3.472,9.414-5.216
		c0.186,0.08,0.715,0.198,1.106,0.49c7.054,5.229,11.304,5.171,18.232-0.276c6.24-4.907,9.487-4.742,15.005,1.108
		c2.262,2.397,4.179,5.1,6.182,7.715c2.375,3.101,7.637,2.729,13.048-1.028c-1.014-3.092-2.365-6.164-2.968-9.354
		c-0.555-2.942,0.317-5.148,4.447-4.956c1.974,0.092,4.34-0.856,5.938-2.056c5.451-4.084,14.465-3.381,19.469,1.556
		c3.886,3.834,7.647,7.311,14.391,6.474c4.547-0.566,9.502,1.37,14.244,2.342c5.168,1.061,10.288,2.37,15.462,3.4
		c1.03,0.204,2.297-0.195,3.321-0.607c5.557-2.248,10.97-4.858,16.654-6.751c2.104-0.699,4.814,0.197,7.246,0.396
		c0.68,0.056,1.412,0.435,2.017,0.291c10.238-2.443,19.698,1.316,29.357,3.665c6.437,1.567,12.977,2.726,19.399,4.345
		c5.06,1.276,10.011,2.979,16.191,4.847c-1.508-4.445-2.424-7.148-3.34-9.85c2.756-0.66,5.515-1.319,8.761-2.097
		c-0.509,2.816-1.547,5.325-1.251,7.699c0.415,3.293,2.384,5.923,6.472,5.988c2.892,0.048,5.132,0.484,6.705,3.606
		c1.386,2.752,4.222,6.788,6.411,6.817c4.12,0.054,7.599-2.889,7.568-7.829c-0.002-0.363,0.573-0.725,1.065-1.311
		c2.808,3.271,5.529,6.44,8.251,9.612c0.532-0.238,1.063-0.477,1.594-0.713c0.073-2.007,0.143-4.015,0.254-7.164
		c2,1.914,3.337,3.198,4.628,4.438c-1.297,1.863-2.342,3.367-4.004,5.759c5.83-0.591,8.46,1.738,9.685,5.922
		c0.043,0.148,1.884-0.165,2.887-0.264c2.871,4.02,5.628,8.117,8.657,12.026c1.621,2.087,3.514,5.146,5.628,5.468
		c3.725,0.567,6.53,1.515,8.762,4.479c0.672,0.894,2.158,1.233,3.271,1.826c0.436-0.267,0.87-0.536,1.304-0.804
		c-0.767-1.963-0.954-4.627-2.416-5.74c-2.788-2.124-6.226-3.539-9.536-4.927c-4.965-2.083-6.193-5.074-3.59-9.584
		c-5.479-6.067-6.099-6.206-12.034-2.66c-1.558-2.358-3.193-4.674-4.634-7.093c-0.524-0.884-1.142-2.297-0.77-2.985
		c3.231-5.99-0.618-10.783-2.925-16.346c1.182-0.03,2.369-0.059,4.615-0.114c-0.957-3.106-1.853-6.007-3.017-9.784
		c2.457-0.24,4.809-0.47,7.689-0.749c-0.907-1.966-1.781-3.864-2.657-5.76c0.258-0.351,0.518-0.697,0.776-1.047
		c2.663,2.154,5.322,4.311,7.988,6.461c6.671,5.379,13.477,10.612,19.922,16.229c1.751,1.524,2.408,4.208,3.749,6.703
		c3.944-2.543,5.388,0.473,6.79,3.196c4.711,9.148,9.371,18.317,13.911,27.544c0.478,0.972,0.006,2.362-0.027,3.558
		c-1.336-0.364-2.747-0.576-3.976-1.153c-0.707-0.331-0.977-1.591-1.68-1.866c-7.653-3.019-7.914-9.323-8.265-15.814
		c-0.249-4.593-2.129-7.501-7.686-9.146c-6.87-2.031-13.08-6.225-19.577-9.47c-1.189-0.595-2.407-1.126-4.082-1.901
		c-0.116,1.294-0.527,2.51-0.198,2.742c3.665,2.589,7.436,5.036,11.197,7.493c1.055,0.688,2.669,1.038,3.18,1.962
		c1.907,3.451,3.321,7.148,5.236,10.595c0.549,0.984,2.121,1.515,3.298,2.119c3.018,1.543,4.462,3.723,1.815,6.319
		c-2.086,2.045-1.246,3.231,0.185,5.046c2.547,3.219,5.631,6.389,6.926,10.064c1.121,3.179,0.069,7.03-0.043,11.367
		c-6.764-3.813-4.647,3.941-8.679,4.551c-0.916-0.662-2.202-1.59-3.999-2.887c-1.686,5.183-0.071,9.571,2.164,13.584
		c1.141,2.049,3.535,3.376,5.846,0.433c0.845-1.076,2.603-1.445,3.781-2.331c1.604-1.211,3.191-2.491,4.532-3.956
		c1.981-2.157,3.739-4.505,5.593-6.773c0.767,0.353,1.534,0.705,2.3,1.059c-0.438,5.234-0.876,10.468-1.456,17.427
		c5.011-1.924,9.239-3.289,13.151-5.239c0.903-0.449,1.065-2.901,0.949-4.395c-0.27-3.451,0.392-5.434,4.605-6.248
		c6.788-1.31,8.846-10.063,3.935-15.063c-4.153-4.231-4.363-6.91-0.493-13.193c2.823,3.334,6.084,6.169,7.97,9.668
		c2.338,4.34,6.739,6.026,10.592,2.899c4.024-3.268,8.105-6.508,11.742-10.146c0.801-0.805,0.145-3.328-0.378-4.903
		c-1.315-3.965-3.093-7.797-4.346-11.774c-0.372-1.18,0.394-2.669,0.86-5.261c2.373,3.99,3.964,6.665,5.695,9.572
		c6.663-6.203,7.313-13.494,7.379-21.585c1.994,1.179,3.22,1.899,3.94,2.326c4.636-2.903,8.949-5.604,14.302-8.956
		c-0.582,2.369-0.894,3.64-1.313,5.334c1.121-0.348,2.389-0.354,2.854-0.944c3.224-4.101,6.749-8.074,9.27-12.565
		c3.017-5.368,3.896-5.79,8.927-1.473c0.354,0.305,0.879,0.423,2.43,1.136c0.229-2.581,0.787-4.727,0.513-6.785
		c-0.511-3.853-2.89-8.021-1.977-11.396c1.403-5.177,4.172-10.435,7.816-14.431c2.603-2.846,3.915-4.8,2.964-8.543
		c-1.541-6.059-1.322-6.105,1.456-9.039c0.762-2.313,1.144-4.837,2.359-6.898c2.668-4.517,3.967-9.079,2.652-14.325
		c-1.597-6.374,1.693-10.99,8.324-12.1c3.567-0.596,3.9-1.056,3.563-4.896c-2.383,0.042-4.771,0.083-7.465,0.131
		c3.378-9.92,9.615-16.963,16.208-23.852c1.525-1.596,1.807-4.238,2.889-6.285c1.187-2.236,2.27-4.68,4.044-6.432
		c3.522-3.48,7.401-6.647,11.32-9.73c1.267-0.995,3.113-1.316,5.372-2.215c-0.809-2.353-6.577-4.492-2.819-8.585
		c0.764-0.835,2.917-0.491,5.197-0.792c-0.779-3.783-1.611-7.843-2.36-11.498c1.281-4.341,2.145-8.819,3.935-12.91
		c2.034-4.652,4.261-9.638,10.454-10.572c3.683-0.556,4.789-2.048,4.253-5.764c-0.285-1.967,1.466-4.261,2.544-6.283
		c1.981-3.711,4.212-7.294,6.212-10.996c1.339-2.478,2.246-5.192,3.735-7.571c2.395-3.823,5.432-7.295,3.065-12.363
		c-0.29-0.619,1.462-2.665,2.677-3.184c1.406-0.602,3.271-0.241,3.806-0.261c0.813-2.835,1.689-4.841,1.908-6.92
		c0.239-2.342,0.216-4.811-0.29-7.113c-0.571-2.604-1.742-4.954,2.471-5.499c0.965-0.124,2.639-1.56,2.508-1.947
		c-2.087-6.129,3.675-12.507-1.038-18.584c-0.95-1.227-0.944-3.177-1.243-4.816c-0.982-5.391-1.801-10.808-2.89-16.183
		c-0.568-2.805-2.253-4.259-5.625-3.832c-3.114,0.396-6.244,0.279-7.778-3.445c-1.439-3.487-0.788-6.092,2.272-8.326
		c0.971-0.71,1.546-1.914,2.88-3.641c-3.146,0.54-5.276,0.724-7.272,1.307c-1.617,0.47-3.077,1.419-5.859,2.761
		c-3.487-2.495-10.41,5.239-15.31-2.968c-10.365,3.497-20.57,7.066-30.872,10.375c-9,2.889-18.721,4.391-26.975,8.555
		c-6.522,3.29-12.206,6.675-20.028,6.284c-3.059-0.153-5.533,4.267-9.741,2.901c-0.332-0.108-1.834,1.626-1.886,2.564
		c-0.293,5.342-4.948,7.136-8.646,9.003c-2.19,1.104-5.971,0.422-8.596-0.57c-3.571-1.35-6.679-3.176-10.842-2.131
		c-1.968,0.494-4.361-0.643-6.58-0.855c-4.082-0.387-8.189-0.518-12.259-0.999c-2.009-0.238-4.298-0.558-5.877-1.636
		c-7.422-5.068-15.202-6.766-24.069-4.508c-6.763,1.722-11.133-0.753-12.962-7.277c-1.016-3.629-3.716-3.862-6.327-4.06
		c-11.102-0.834-19.082-6.318-24.242-15.446c-2.174-3.852-3.609-8.317-4.274-12.646c-1.107-7.239-2.081-8.001-8.593-4.488
		c-0.432,0.235-0.957,0.317-1.773,0.578c-0.72-1.418-1.423-2.803-2.618-5.154c-5.541,4.426-10.753,8.442-15.675,12.766
		c-0.47,0.413,0.935,2.72,1.385,4.172c0.639,2.079,1.199,4.18,1.792,6.272c-1.563,0.34-3.182,1.143-4.678,0.947
		c-12.016-1.579-24.011-3.331-36.005-5.07c-1.883-0.275-4.1-0.284-5.505-1.28c-1.44-1.019-3.015-3.184-2.892-4.7
		c0.485-6.041-2.378-7.991-8.676-7.55c-6.079,0.426-11.729,1.411-17.553,3.118c-6.608,1.938-23.479-9.481-26.825-15.46
		c-2.583-4.611-7.085-8.451-11.332-11.962c-3.06-2.528-6.001-4.486-5.475-8.899c0.131-1.096-0.586-3.008-1.459-3.402
		c-6.7-3.018-5.732-9.63-7.25-14.663c-1.796-5.952,1.593-9.051,8.646-9.333c3.846-0.152,6.084-0.613,5.954-5.269
		c-0.115-4.175,3.439-5.401,7.583-5.763c5.964-0.521,11.079-2.331,14.11-8.24c1.6-3.119,5.293-5.228,8.151-7.895
		c4.941,6.539,11.074,6.727,15.632,0.663c2.82-3.753,5.448-5.582,10.634-4.697c3.81,0.65,7.926-0.796,11.9-0.712
		c2.045,0.043,4.08,1.389,6.26,2.198c4.085-0.129,8.705-0.246,13.319-0.438c1.335-0.055,3.454,0.122,3.862-0.562
		c4.739-7.93,12.023-3.167,18.197-3.112c6.559,0.06,13.132,0.803,19.682,1.451c2.038,0.202,4.016,1.06,6.02,1.614
		c0.242,0.815,0.486,1.632,0.728,2.445c3.111-2.622,6.224-5.244,9.547-8.042c1.999,4.706,6.273,3.076,9.964,3.169
		c3.373,0.084,6.746-0.028,11.255-0.062c-1.284,2.272-1.953,3.45-2.619,4.632c5.692,3.569,10.927,1.79,16.348-2.247
		c0.521,2.515,0.852,4.117,1.184,5.721c0.437,0.063,0.871,0.127,1.308,0.192c0.345-1.908,0.997-3.817,0.973-5.726
		c-0.053-4.221,1.729-4.833,5.536-3.314c4.17,1.666,8.462,3.114,12.811,4.251c1.439,0.376,4.143,0.036,4.693-0.87
		c3.774-6.212,9.479-4.154,14.737-3.136c4.244,0.823,8.317,2.498,12.517,3.61c3.07,0.815,6.361,1.849,6.813-3.122
		c0.061-0.67,2.635-1.596,3.992-1.504c1.606,0.108,3.289,1.002,4.717,1.888c7.117,4.403,15.31,2.376,22.925,3.858
		c6.242,1.214,10.192,4.524,13.8,9.047c0.901,1.129,2.965,2.325,4.234,2.123c5.207-0.834,10.053-2.005,13.154,4.182
		c0.356,0.716,5.036-0.512,7.712-0.838c-0.056-0.588-0.111-1.178-0.168-1.768c-1.446-0.749-2.892-1.499-4.628-2.397
		c1.243-1.464,2.352-2.771,3.473-4.09c-2.323-0.733-4.323-1.365-6.326-1.996c1.605-0.827,3.208-1.652,5.255-2.708
		c-1.002-2.466-5.073-5.318-1.439-8.928c0.777-0.77,2.056-2.006,2.723-1.806c6.184,1.858,6.147-3.431,7.607-6.309
		c1.62-3.192,4.291-6.822-0.109-10.497c2.818-0.595,5.351-0.783,7.524-1.715c1.302-0.56,1.895-2.441,3.061-3.462
		c3.187-2.784,6.201-5.918,9.863-7.985c3.613-2.038,5.127-4.212,4.939-8.328c-0.092-1.944,2.075-3.948,3.556-6.506
		c-0.351-0.211-1.684-1.008-3.863-2.315c1.631-0.694,2.823-1.011,3.784-1.644c2.054-1.353,4.659-2.492,5.818-4.41
		c1.746-2.886,0.936-7.333,5.918-8.139c0.302-0.049,0.759-1.706,0.44-2.214c-3.433-5.497,0.899-9.669,2.81-13.925
		c0.855-1.906,4.712-2.54,7.645-3.964c-0.138-0.254-1.117-1.327-1.261-2.484c-0.181-1.462-0.038-4.14,0.584-4.311
		c5.038-1.377,4.016-4.815,3.728-8.36c-0.167-2.054,0.653-4.168,1.08-6.526c-2.202-0.398-3.825-0.691-5.851-1.058
		c2.277-2.347,5.845-4.366,6.254-6.899c0.42-2.592-2.256-5.688-3.788-9.021c-0.895,0.044-2.354,0.117-3.985,0.199
		c-1.441-6.028-3.271-11.642,1.9-16.921c1.427-1.457,1.661-4.885,1.067-7.087c-1.497-5.583-3.883-10.953-5.691-16.472
		c-0.778-2.373-0.866-4.939-1.545-7.352c-0.464-1.657-1.379-3.207-2.139-4.784c-0.483-1.002-1.695-2.133-1.487-2.925
		c1.909-7.209-2.925-10.251-8.334-13.375c-1.595-0.921-2.403-3.309-3.285-5.148c-1.223-2.544-1.529-5.76-3.363-7.71
		c-4.825-5.141-11.1-9.18-15.253-14.712c-5.944-7.92-14.956-8.469-23.047-11.548c-2.732-1.04-4.924-3.394-7.422-5.071
		c-1.792-1.204-3.555-2.893-5.545-3.287c-4.352-0.862-6.543-3.598-9.086-6.717c-1.519-1.865-4.973-2.29-7.557-3.364
		c-0.334,0.524-0.668,1.048-1.002,1.572c1.396,1.343,2.794,2.687,4.188,4.03c-0.104,0.393-0.211,0.788-0.317,1.181
		c-3.986-1.042-7.925-2.383-11.972-3.056c-5.209-0.864-10.631-0.678-15.74-1.871c-8.982-2.098-18.287-2.529-26.923-6.711
		c-5.764-2.792-12.602-3.49-18.953-5.142c-4.194-1.091-8.429-2.074-12.535-3.427c-0.927-0.305-1.503-1.895-2.053-2.978
		c-1.465-2.899-4.319-2.957-4.991-0.579c-1.94,6.846-8.284,4.801-12.669,6.015c-2.857,0.792-6.497-0.972-9.804-1.48
		c-0.919-0.142-2.243-0.249-2.796,0.238c-4.382,3.85-9.262,3.29-14.495,1.899c-2.026-0.539-4.327-0.099-6.5-0.063
		c-0.685,0.013-1.493,0.441-2.027,0.208c-7.927-3.437-15.506-0.945-23.345,0.317c-6.606,1.066-6.74,0.366-6.191-6.371
		c-1.227,0.681-2.219,1.177-3.15,1.755c-4.205,2.62-7.548,7.016-13.645,5.704c-0.695-0.15-1.986,0.308-2.3,0.859
		c-2.553,4.469-6.828,3.901-10.447,2.411c-5.781-2.379-11.04,1.518-16.585,0.19c-0.94-0.225-1.965-0.101-3.387-0.155
		c0.458-1.716,0.816-3.063,1.424-5.339c-1.852,0.524-3.177,0.873-4.488,1.27c-3.857,1.169-7.722,2.31-11.546,3.563
		c-1.098,0.361-2.053,1.096-3.103,1.604c-2.277,1.1-4.495,2.888-6.876,3.083c-4.33,0.353-8.76-0.249-13.643-0.473
		c0.278-1.537,0.596-3.301,1.022-5.655c-1.291,0.396-2.083,0.405-2.466,0.789c-7.799,7.825-4.379,6.172-14.009,2.417
		c-5.538-2.157-10.407-0.948-15.186,1.237c-2.357,1.077-8.56,0.192-9.743-2.034c-3.668-6.906-7.136-7.793-14.136-3.591
		c-0.856,0.515-1.636,1.148-2.753,1.942c-2.555-2.166-5.002-4.239-6.652-5.638c-5.561-0.091-10.5-0.619-15.311-0.129
		c-5.305,0.542-10.447,2.286-15.74,3.012c-6.031,0.827-10.468,3.282-15.117,7.33c-4.634,4.038-9.926,6.908-13.185,12.627
		c-1.491,2.617-6.453,3.543-10.025,4.761c-0.802,0.274-3.028-1.219-3.435-2.292c-0.627-1.65-1.073-4.471-0.138-5.321
		c2.501-2.275,1.529-3.973,0.167-6.112c-1-1.571-2.071-3.215-2.535-4.959c-1-3.758-1.871-4.408-6.832-4.092
		c-5.148,0.327-10.895,1.003-16.293,0.04c-7.415-1.326-9.737-0.527-14.004,5.473c-2.554,3.586-5.414,6.984-7.737,10.7
		c-0.989,1.583-1.116,3.743-1.363,5.677c-1.13,8.905-2.078,17.836-3.305,26.727c-0.241,1.729-1.559,3.282-2.146,4.991
		c-0.519,1.511-0.937,3.118-1,4.704c-0.134,3.371,0.913,7.081-0.188,10.064c-2.103,5.707-5.375,11.001-8.145,16.472
		c-1.26,2.488-2.485,4.993-5,7.271c0.294-1.627,0.447-3.293,0.904-4.874c2.199-7.569,4.687-15.063,6.667-22.688
		c1.452-5.581,2.108-11.358,3.429-16.977c1.344-5.712,3.276-11.162-2.626-16.106c-1.461-1.221-1.053-4.505-1.697-7.837
		c-1.329,1.905-2.087,2.996-2.896,4.156c-0.676-0.228-1.472-0.288-1.565-0.562c-0.531-1.539-1.404-3.193-1.226-4.69
		c0.975-8.245,1.865-16.528,3.503-24.655c1.045-5.181,3.235-10.148,5.104-15.144c1.31-3.501,4.09-6.27,5.99-9.247
		c3.419-5.359,4.676-12.215,5.865-18.624c0.925-4.995,0.375-10.262,0.507-16.656c1.864,1.796,2.615,2.521,3.755,3.615
		c0.744-1.364,2.005-3.353,1.857-3.456c-5.003-3.483-0.799-7.902-1.617-11.744c-0.023-0.106-0.286-0.168-1.189-0.67
		c-1.417,2.634-2.832,5.263-4.376,8.135c-2.039-0.719-4.098-1.442-6.728-2.368c-0.907-3.785,0.126-7.476,2.42-11.561
		c5.211-9.277,9.83-18.904,14.048-28.652c2.046-4.728,2.65-10.044,3.934-15.209c-0.506-0.056-1.218-0.336-1.448-0.13
		c-9.381,8.514-19.232,16.427-26.924,26.71c-9.39,12.556-16.924,26.043-24.783,39.427c-2.412,4.107-6.295,7.388-9.342,11.168
		c-1.222,1.517-3.204,3.719-2.772,4.999c1.807,5.4-1.675,8.954-3.912,12.904c-1.797,3.175-4.167,6.042-6.179,9.113
		c-4.385,6.693-4.357,6.71-13.308,10.194c-0.189-1.361-0.666-2.612-0.466-3.746c0.611-3.49,1.306-6.62-3.973-7.593
		c-0.866-0.159-2.22-4.249-1.479-5.388c2.864-4.41,5.898-9.022,9.974-12.31c4.734-3.821,6.724-7.983,6.235-13.75
		c-0.165-1.93,0.82-3.921,0.734-5.868c-0.112-2.559-0.762-5.104-1.909-7.595c2.171-9.039,4.619-11.071,12.042-9.377
		c1.323-3.912,2.219-8.15,4.216-11.829c1.104-2.039,4.047-3.14,6.472-4.886c3.366-5.532,6.527-12.295,11.223-17.856
		c2.802-3.318,8.046-4.702,12.124-7.061c1.7-0.983,3.235-2.226,4.825-3.373c3.564-2.572,6.831-5.667,10.732-7.629
		c7.894-3.971,16.168-7.259,24.194-11.002c1.628-0.759,2.86-2.287,4.272-3.459c4.868,2.843,9.333,0.55,13.543-1.052
		c11.304-4.3,22.582-8.472,34.589-10.918c7.336-1.494,14.945-3.416,18.156-11.426c0.471-1.177,2.123-2.333,3.469-2.673
		c6.938-1.753,11.286-5.26,10.257-13.819c-3.425,0.733-6.75,1.444-9.915,2.122c0.136-1.778,0.255-3.298,0.372-4.817
		c-1.939,0.054-4.082-0.383-5.78,0.247c-8.408,3.12-16.7,6.521-25.032,9.823c-0.483-0.525-0.967-1.05-1.451-1.576
		c0.632-1.689,0.921-3.614,1.96-5.026c3.479-4.73,8.14-7.535,14.205-9.149c11.468-3.056,22.481-7.641,33.989-10.524
		c11.83-2.964,24.029-4.65,36.063-6.922c1.298-0.246,3.079-0.275,3.751-1.086c6.659-8.028,16.114-8.318,25.658-8.605
		c3.636-0.109,7.332-0.272,10.85-1.022c1.578-0.337,2.787-2.172,4.166-3.326c-0.234-0.373-0.468-0.747-0.703-1.121
		c5.218,0.297,10.435,0.595,15.652,0.891c0.092-0.444,0.183-0.888,0.274-1.332c-0.952-0.607-1.905-1.215-3.685-2.35
		c9.141-0.628,17.465-4.331,25.124,2.443c0.677,0.599,2.858-0.614,4.331-0.562c8.162,0.29,16.32,0.708,25.181,1.116
		c-0.976,0.876-1.553,1.347-2.072,1.87c-1.022,1.025-2.012,2.079-3.015,3.122c1.442,0.804,2.81,2.034,4.344,2.299
		c1.625,0.28,3.795,0.17,5.059-0.675c8.277-5.536,18.13-1.654,26.892-4.021c1.774-0.481,3.831-0.593,5.26-1.55
		c8.242-5.516,17.487-5.106,26.733-3.731c16.663,2.479,33.428,4.636,49.862,8.225c21.563,4.708,42.866,10.222,62.002,22.147
		c9.884,6.157,21.375,9.873,32.015,14.937c15.346,7.302,30.538,14.908,45.876,22.229c12.564,6,22.479,15.195,32.494,24.317
		c1.101,1.005,2.92,1.325,3.921,2.383c1.356,1.437,2.098,3.393,3.368,4.922c1.782,2.145,3.75,4.161,5.762,6.113
		c0.789,0.765,2.021,1.097,2.87,1.817c12.591,10.659,24.887,21.659,37.795,31.945c12.256,9.766,21.812,21.291,28.318,35.131
		c1.426,3.032,2.785,6.301,3.096,9.541c0.491,5.153,1.953,9.623,5.197,13.903c1.603,2.115,1.651,5.318,2.35,8.042
		c3.101,12.099,8.78,23.605,8.732,36.448c-0.023,6.271,2.836,11.99,7.426,16.752c0.7,0.726,1.806,1.795,1.651,2.465
		c-1.236,5.437,3.185,7.9,6.413,10.585c8.627,7.175,12.881,17.07,18.634,26.029c3.471,5.403,6.999,10.826,9.841,16.534
		c6.416,12.89,13.416,25.531,16.377,39.792c1.514,7.294,5.176,14.187,7.232,21.416c1.496,5.268,1.97,10.792,2.869,16.205
		c0.248,1.476,0.07,3.076,0.615,4.434c4.164,10.469,4.512,21.417,5.356,32.345c0.921,11.891,2.516,23.745,3.405,35.637
		c0.431,5.778-0.418,11.623-0.09,17.412c0.585,10.284,1.945,20.542,2.37,30.825c0.308,7.451-0.616,14.922-0.563,22.39
		c0.109,15.108,0.411,30.222,0.854,45.332c0.122,4.213-0.997,4.703-5.421,4.311c-2.568-0.226-5.6,1.763-7.871,3.437
		c-0.749,0.551,0.23,3.241,0.427,5.017c-2.438,0.439-5.879,0.331-8.306,1.768c-1.494,0.886-1.444,4.132-2.269,6.946
		c2.086-0.164,3.483-0.272,4.881-0.376c3.334,5.498,4.501,5.413,8.239,0.067c1.402-2.004,3.632-3.459,5.42-5.224
		c0.902-0.891,2.136-1.801,2.403-2.896c1.162-4.773,3.686-5.884,7.438-2.428c3.064,2.818,5.674,3.598,8.783,0.69
		c8.906,6.841,13.825,15.888,16.037,25.723c2.858,12.699,4.373,25.684,5.986,38.592c1.313,10.529-3.714,19.864-6.939,29.437
		c-3.451,10.244-8.305,20.064-11.309,30.415c-2.723,9.383-4.236,19.175-5.474,28.893c-2.459,19.296-7.106,37.916-15.085,55.762
		c-2.129,4.762-3.449,10.051-4.067,15.231c-3.084,25.796-18.225,41.2-46.142,41.832c-7.629,0.172-15.237,0.813-22.854,1.243
		c-3.564,0.2-5.338,1.931-6.442,5.311c-2.406,7.363-5.456,14.524-8.182,21.788c-0.572,1.527-0.979,3.128-1.296,4.729
		c-1.188,6.044-2.477,12.08-3.379,18.169c-0.403,2.716,0.473,5.636,0,8.33c-6.056,34.563-5.927,69.61-7.265,104.537
		c-0.354,9.308,0.001,18.652,0.164,27.982c0.028,1.589,0.232,3.621,1.24,4.691c5.72,6.094,11.551,12.11,17.648,17.859
		c7.614,7.18,15.341,14.269,23.351,21.033c8.796,7.428,17.493,15.126,27.139,21.407c6.678,4.347,14.797,6.729,22.434,9.579
		c14.282,5.33,28.671,10.395,43.041,15.495c2.831,1.004,4.203,2.161,3.466,5.496c-0.657,2.976,0.06,6.229-0.011,9.353
		c-0.174,7.638-0.451,15.269-0.689,22.9c-0.079,2.487-0.162,4.974-0.257,7.459c-0.051,1.318,0.23,2.776-0.251,3.929
		c-5.532,13.322-12.147,26.296-16.61,39.946c-9.363,28.641-27.147,52.691-43.433,77.548c-8.579,13.095-18.221,25.534-29.774,36.536
		c-8.517,8.111-15.959,17.261-24.46,25.39c-9.731,9.306-20.232,17.836-32.205,24.528c-8.718,4.875-17.173,10.228-26.197,14.519
		c-7.788,3.702-16.21,6.21-24.36,9.222c-0.636,0.234-1.402,0.147-2.035,0.388c-6.99,2.651-13.866,5.613-20.992,7.893
		c-3.277,1.049-7.031,0.78-10.569,1.115c-2.628,0.248-5.284,0.36-7.88,0.781c-6.588,1.07-13.158,2.229-19.713,3.453
		c-2.704,0.504-5.321,1.438-8.037,1.854c-4.327,0.662-8.698,1.104-13.063,1.529c-1.361,0.133-2.862-0.42-4.132-0.092
		c-6.236,1.611-12.41,3.436-18.617,5.135c-1.976,0.54-3.988,1.313-5.996,1.32c-11.184,0.038-22.455-0.945-33.54-0.05
		c-22.29,1.797-44.243-2.42-66.358-3.411c-9.529-0.43-18.994-2.818-28.488-4.313c-1.192-0.188-2.43-0.59-3.579-0.45
		c-5.813,0.704-10.787-1.122-15.557-4.982c-0.254,1.404-0.438,2.425-0.688,3.813c-0.928-0.635-1.419-1.201-2.016-1.345
		c-4.605-1.108-9.191-2.435-13.863-3.092c-3.731-0.527-7.446,0.127-9.432-4.391c-1.458-3.322-4.574-3.231-8.042-2.238
		c-4.099,1.176-8.469,1.526-12.723,2.233c-0.337-0.757-0.673-1.511-1.009-2.267c2.304-0.376,4.614-0.753,6.92-1.133
		c-0.647-0.562-1.297-1.127-1.944-1.689c-1.927-1.993-3.854-3.986-5.846-6.047c-2.604-0.214-5.757-0.797-8.845-0.612
		c-2.12,0.126-4.381,0.986-6.17,2.109c-3.149,1.975-5.906,4.514-9.016,6.557c-0.667,0.437-2.244-0.027-3.229-0.455
		c-3.363-1.468-6.56-3.343-9.99-4.622c-5.876-2.188-7.552-7.094-4.483-12.27c0.886-1.496,0.789-5.101-0.256-5.809
		c-2.963-2.003-3.214,1.288-4.446,2.915c-1.445,1.906-3.44,3.424-5.368,5.275c-2.328-4.821-0.8-7.731,6.514-13.594
		c-2.956-2.795-8.625,2.172-10.357-2.775c3.02-2.554,5.992-4.597,8.285-7.192c1.251-1.414,1.515-3.744,1.816-5.723
		c0.058-0.399-2.376-1.706-2.544-1.539c-1.279,1.246-2.272,2.761-3.375,4.176c-0.197,0.251-0.489,0.435-0.998,0.878
		c-2.779-1.646-4.33-3.71-2.344-6.759c1.845-2.832,4.458-4.52,7.746-1.897c3.8,3.03,5.202,1.52,7.158-2.039
		c3.12-5.676,4.941-10.982-0.481-16.248c-1.321-1.281-3.332-2.358-5.148-2.606c-2.584-0.354-3.684-1.194-2.644-3.505
		c2.969-6.563,0.144-12.39-2.915-18.035c-0.617-1.14-3.108-1.617-4.814-1.9c-1.572-0.263-4.111,0.834-4.728,0.133
		c-1.742-1.984-3.591-4.534-3.781-6.954c-0.258-3.272,0.986-6.631,1.41-8.979c-2.415-3.563-4.391-6.658-6.587-9.603
		c-0.652-0.871-1.852-1.537-2.938-1.915c-4.107-1.435-6.008-4.365-6.618-8.297c-0.124-0.799-0.474-2.285-0.523-2.277
		c-7.172,1.005-5.356-8.093-11.12-9.165c-1.589-0.296-2.373-4.075-3.851-6.031c-1.462-1.937-3.435-3.514-5.01-5.382
		c-3.211-3.813-6.38-7.659-9.398-11.612c-0.883-1.154-1.477-2.664-1.719-4.082c-1.869-10.89-8.974-18.609-16.367-26.545
		c-3.99-4.283-5.814-10.42-8.846-16.158c-3.635,1.156-5.986-0.787-8.42-4.253c-1.766-2.512-5.448-3.784-8.228-5.671
		c-1.649-1.121-3.209-2.365-5.09-3.762c-4.342-0.42-9.553,7.575-14.055-1.186c-1.534,0.167-3.186,0.344-4.835,0.521
		c0.15-0.445,0.301-0.891,0.449-1.334c-3.777-1.485-7.551-2.971-11.327-4.456c-2.707-1.063-5.415-2.126-8.12-3.193
		c-0.807-0.319-1.729-1.087-2.39-0.922c-9.896,2.48-13.266-5.366-19.045-11.381c-0.603,2.332-1.711,4.286-1.483,6.106
		c2.227,17.719,4.099,35.503,7.266,53.088c2.122,11.784,5.468,23.501,9.548,34.84c4.25,11.806,9.854,23.2,15.226,34.623
		c3.932,8.358,8.352,16.521,12.75,24.674c1.675,3.106,4.081,5.855,5.831,8.934c3.244,5.695,6.208,11.533,9.371,17.271
		c1.198,2.167,2.624,4.221,4.56,7.305c-7.048-0.448-10.889-4.425-14.671-7.924c-3.872-3.581-7.453-7.593-10.438-11.876
		c-3.049-4.372-5.218-9.302-7.747-13.939c-7.158,2.686-10.227,1.539-14.074-4.445c-3.556-5.531-7.253-10.982-11.127-16.311
		c-0.509-0.698-2.861-1.06-3.627-0.558c-4.452,2.907-7.969,2.648-11.484-0.965c-1.399-1.438-3.082-3.178-4.907-3.586
		c-7.752-1.732-11.272-7.353-14.27-13.488c-2.063-4.229-3.343-8.971-9.681-9.081c-0.807-0.013-1.647-1.545-2.414-2.421
		c-4.666-5.311-8.563-11.553-14.118-15.776c-13.72-10.427-21.18-19.688-24.146-36.215c-1.597-8.899-0.964-18.132-1.374-28.103
		c-2.434,1.416-4.565,2.547-6.58,3.853c-3.007,1.948-5.868,1.663-6.152-1.987c-0.796-10.191-9.189-17.209-11.774-26.58
		c-0.17-0.618-0.62-1.236-1.103-1.698c-13.904-13.284-21.526-30.031-28.569-47.055c-3.335-8.06-6.507-16.2-9.238-24.454
		c-3.042-9.191-1.997-17.765,4.221-25.764c3.199-4.117,4.926-9.284,7.415-13.929c1.254-2.341,2.685-4.599,4.104-6.854
		c3.147-5.006,6.038-10.279,12.893-11.91c-6.823-0.5-11.783,2.082-15.642,8.045c-1.31-4.729,0.99-7.505,3.693-8.954
		c5.355-2.869,11.075-5.265,16.902-7.15c4.633-1.5,9.077-2.604,9.325-8.818c1.843,0.952,2.972,1.535,4.269,2.206
		c0.16-0.536,0.493-1.014,0.381-1.368c-2.258-7.128-4.709-14.207-6.799-21.375c-0.929-3.189-1.019-6.581-1.744-9.832
		c-0.384-1.723-1.397-3.32-1.961-5.02c-0.304-0.917-0.258-1.935-0.37-2.906c1.031,0.518,2.541,0.785,3.008,1.596
		c1.493,2.592,2.602,5.385,4.116,8.658c1.832-0.423,3.939-0.917,6.052-1.399c1.217-0.279,2.438-0.536,3.655-0.803
		c0.097,1.373,0.4,2.771,0.234,4.109c-0.154,1.234-0.81,2.405-0.882,3.948c3.329-3.063,9.649-0.94,11.607-6.536
		c0.156-0.447,4.412,0.481,6.761,0.769c-0.304,1.521-0.205,3.297-1.015,4.499c-1.067,1.583-2.851,2.714-4.134,4.552
		c6.123-0.745,11.903-4.636,18.145-0.808c0.885,4.145,1.784,8.35,2.644,12.376c1.202,0.929,3.175,1.812,4.098,3.287
		c2.722,4.354,6.938,6.118,11.825,4.377c1.251-0.446,2.436-1.06,4.983-2.185c-0.422,8.74-2.629,16.107-4.911,23.603
		c2.019-0.232,4.068-0.467,5.886-0.676c0.789,2.369,1.407,4.225,2.31,6.938c-4.538,6.601-4.731,9.705,0.676,15.623
		c-3.026,0.412-5.334,0.704-7.63,1.049c-2.104,0.315-4.198,0.689-6.296,1.038c0.101,0.617,0.203,1.234,0.304,1.854
		c3.279,0.229,6.558,0.457,9.834,0.687c0.016,0.341,0.031,0.68,0.047,1.021c-1.452,0.222-3.038,0.177-4.317,0.747
		c-1.136,0.506-1.934,1.696-2.199,3.579c1.093-0.169,2.18-0.476,3.275-0.478c2.165,0.003,4.333,0.171,6.5,0.274
		c-0.255,2.042-0.417,4.104-0.793,6.122c-0.354,1.912-0.933,3.78-0.768,5.902c5.851-2.268,7.261-9.91,14.98-9.035
		c-1.982,2.114-4.029,3.931-5.623,6.065c-4.792,6.422-4.746,13.258-1.335,20.394c0.486,1.018-0.095,2.494,0.957,4.206
		c0.729-1.44,1.349-2.951,2.215-4.313c1.207-1.899,2.359-3.92,3.97-5.475c2.352-2.268,4.586-2.482,6.612,0.953
		c1.998,3.388,5.284,4.301,8.502,2.646c-1.366-0.681-2.475-1.231-3.762-1.875c0.462-0.517,0.907-1.215,1.06-1.157
		c1.607,0.589,4.085,0.976,4.515,2.057c0.555,1.396-0.536,3.375-0.914,5.104c-0.296,1.352-0.587,2.701-0.879,4.054
		c1.617-0.05,3.285,0.12,4.83-0.21c1.612-0.348,3.106-1.178,4.976-1.927c0.466,1.985,0.823,3.502,1.329,5.661
		c2.708-2.03,4.922-3.691,7.138-5.351c0.283,0.238,0.566,0.477,0.85,0.716c-1.09,4.042-2.18,8.085-3.268,12.127
		c0.586,0.256,1.171,0.514,1.757,0.771c1.365-2.744,2.73-5.488,4.095-8.231c0.284,0.076,0.567,0.154,0.85,0.231
		c-0.166,2.078-0.336,4.155-0.601,7.409c3.244-2.808,5.489-4.751,7.427-6.425c-0.966-1.72-3.239-4.12-2.708-5.12
		c1.782-3.354,4.935-5.65,9.351-4.233c2.078,0.666,3.958,1.914,6.256,3.058c-1.301,2.463-2.483,4.696-3.667,6.932
		c0.284,0.354,0.568,0.704,0.853,1.058c1.884-0.785,3.698-1.889,5.674-2.27c2.334-0.452,5.344-1.132,7.064-0.125
		c1.453,0.853,2.362,4.16,1.952,6.048c-0.678,3.114-2.586,5.971-4.036,8.909c-0.677,1.372-1.491,2.679-2.243,4.015
		c0.375,0.261,0.751,0.521,1.125,0.781c2.183-2.362,4.305-4.779,6.563-7.075c2.648-2.695,5.345-3.764,8.069,1.538
		c1.236-2.596,2.104-4.418,3.275-6.871c2.058,2.124,3.918,4.04,5.969,6.156c0.813-1.57,1.375-3.608,2.699-4.956
		c1.394-1.424,3.402-2.586,5.37-3.063c0.861-0.208,3.37,1.819,3.232,2.385c-0.402,1.668-1.927,3.037-2.669,4.67
		c-0.493,1.08-0.395,2.413-0.562,3.637c1.156-0.178,2.922,0.041,3.368-0.6c2.782-3.977,5.271-8.148,7.856-12.256
		c-0.405-0.224-0.806-0.45-1.211-0.674c2.059-0.926,4.868-1.359,5.963-2.917c1.095-1.554,0.472-4.233,0.663-7.437
		c5.164,2.287,9.379,4.359,13.781,5.937c0.905,0.325,2.965-0.893,3.69-1.923c1.824-2.594,3.096-5.539,4.768-8.238
		c1.211-1.955,2.712-3.742,4.501-6.171c3.638,0.043,8.037-3.273,9.927-8.126c0.441-1.136,1.458-2.688,2.467-2.879
		c4.821-0.905,4.721-3.8,4.021-7.472c-0.297-1.563,0.5-3.301,1.742-4.876c0.892,3.245,1.784,6.491,2.756,10.03
		c1.429-0.123,3.08-0.763,4.006-0.229c1.351,0.78,2.892,2.316,3.095,3.684c0.455,3.045,0.13,6.187,0.123,9.289
		c0.449,0.07,0.897,0.14,1.346,0.209c0.745-1.705,1.488-3.411,2.019-4.633c3.184,0.574,6.118,1.106,9.05,1.635
		c-0.078-2.103,0.372-4.403-0.399-6.247c-0.643-1.536-2.72-2.539-4.81-3.091c-1.434-2.535-2.868-5.068-4.646-8.212
		c6.042,0.6,9.105,5.095,13.224,7.732c1.227,0.789,2.181,2.2,2.858,3.514c2.03,3.938,4.074,6.404,8.224,1.89
		c0.449-0.49,3.719,0.497,4.74,1.599c2.441,2.632,4.527,3.856,8.031-0.729c0.655,2.433,1.088,4.042,1.701,6.314
		c2.874-3.232,4.688-5.271,7.005-7.876c-2.385,0.268-4.171,0.47-5.07,0.572c-2.775-3.196-4.828-6.492-7.771-8.677
		c-2.784-2.066-6.502-2.967-9.811-4.38c0.147-0.429,0.296-0.859,0.445-1.287c0.616-0.093,1.317-0.417,1.839-0.241
		c8.483,2.867,17.088,5.477,25.331,8.91c2.584,1.075,4.167,4.414,6.233,6.696c1.388,1.537,2.577,3.537,4.334,4.327
		c0.806,0.363,2.824-1.601,4.181-2.64c4.008-3.068,4.256-5.077-0.633-8.562c-4.207-2.994-7.059-8.145-7.538-13.831
		c5.097,2.404,9.458,4.463,14.333,6.763c-2.055-5.013-3.043-9.341-5.455-12.76c-2.342-3.317-6.144-5.696-8.637-9.45
		c1.229,0.282,2.458,0.564,3.988,0.915c0.242-1.334,0.456-2.522,0.663-3.667c5.523,5.12,10.907,10.109,16.292,15.102
		c0.326-0.178,0.654-0.357,0.981-0.532c-0.362-2.199-0.724-4.395-1.084-6.591c0.291-0.065,0.583-0.133,0.876-0.199
		c4.615,5.397,9.232,10.793,14.323,16.744c-1.75,2.567-1.612,5.862,2.666,8.122c0.923,0.485,2.217,0.313,3.339,0.445
		c0.072-1.069,0.339-2.162,0.18-3.206c-0.479-3.18-0.904-6.397-1.779-9.492c-0.599-2.114-2.095-3.995-2.862-6.085
		c-0.782-2.13-1.934-4.599-1.403-6.511c0.278-0.996,3.8-1.214,5.9-1.598c1.925-0.352,3.985-0.199,5.839-0.722
		c3.411-0.958,6.713-2.249,9.206-3.106c-2.506-3.679-5.122-7.52-7.738-11.358c0.388-0.365,0.779-0.73,1.167-1.097
		c-1.504-0.195-3.237,0.001-4.451-0.676c-1.828-1.021-4.559-2.595-4.655-4.035c-0.208-3.161,2.82-3.275,5.348-2.702
		c2.866,0.648,5.656,1.609,8.474,2.46c1.517,0.459,3.018,0.971,5.297,0.478c-0.598-1.083-1.002-2.335-1.835-3.218
		c-2.257-2.405-1.901-4.501,0.358-6.52c2.138-1.908,4.22-2.621,6.801-0.274c0.766,0.695,2.532,0.387,3.84,0.521
		c1.89,0.194,3.782,0.377,6.532,0.651c-0.585-2.534-1.847-5.001-1.457-7.172c0.372-2.062,2.472-3.814,4.396-6.522
		c-9.169-1.969-12.586-9.225-15.234-17.061c2.704,2.419,5.408,4.837,8.613,7.703c0.503-0.798,1.796-2.511,1.637-2.646
		c-2.826-2.416-5.83-4.64-8.793-6.904C485.457,982.976,484.989,983.62,484.521,984.264z M539.048,536.813
		c0.077-0.27,0.156-0.542,0.233-0.813c1.896-0.378,3.788-0.783,5.693-1.123c2.437-0.434,4.995-1.489,7.308-1.101
		c7.847,1.317,12.756-0.832,16.08-8.617c-4.863-0.132-9.246-0.739-8.444-7.153c0.123-0.972-2.386-2.95-3.973-3.363
		c-7.711-2.011-15.522-3.661-23.306-5.411c-2.51-0.562-5.069-1.552-7.551-1.447c-3.864,0.166-7.656,1.384-11.523,1.635
		c-4.813,0.312-9.768-0.46-14.486,0.24c-7.296,1.082-14.537,2.722-21.628,4.677c-6.43,1.774-12.502,4.722-18.97,6.331
		c-4.891,1.215-4.375,4.979-4.513,7.832c-0.074,1.527,2.849,4.187,4.844,4.683c4.506,1.122,9.266,1.346,13.938,1.708
		c19.752,1.528,39.501,3.071,59.268,4.313C534.314,539.347,536.702,537.654,539.048,536.813z M516.876,548.341
		c0.145-0.667,0.289-1.331,0.433-1.999c-1.075-0.62-2.081-1.577-3.233-1.803c-7.795-1.527-15.579-3.44-23.454-4.147
		c-6.299-0.567-12.735,0.265-19.074,0.809c-1.046,0.089-2.244,1.763-2.703,2.95c-0.233,0.603,0.944,2.466,1.613,2.542
		c4.249,0.479,8.532,0.756,12.805,0.838c6.844,0.129,13.688-0.034,20.532,0.096C508.155,547.706,512.515,548.091,516.876,548.341z
		 M103.071,187.95c0.785,0.325,1.572,0.648,2.357,0.972c2.776-5.525,5.085-11.332,8.425-16.515
		c5.922-9.193,6.396-20.861,14.391-29.074c1.362-1.4,2.612-3.39,2.767-5.214c0.103-1.204-1.845-2.599-2.875-3.909
		c-3.295,4.052-8.779,7.793-9.394,12.229c-1.026,7.392-2.225,14.247-6.551,20.479c-1.513,2.18-2.581,4.681-3.61,7.134
		C106.651,178.646,104.896,183.313,103.071,187.95z M436.479,4.683c8.467,1.941,16.742,2.151,26.025-1.917
		C452.616,0.755,444.394,1.111,436.479,4.683z M329.811,1105.701c-0.023-3.091-0.047-6.181-0.074-9.705
		C324.648,1099.087,324.439,1101.272,329.811,1105.701z M170.934,1082.525c0.894,0.565,1.788,1.135,2.682,1.702
		c1.332-1.836,2.727-3.64,3.86-5.585c0.074-0.126-1.852-1.345-2.845-2.053C173.397,1078.569,172.166,1080.547,170.934,1082.525z
		 M477.396,884.073c-0.384,0.44-0.767,0.88-1.151,1.319c0.772,1.432,1.348,3.01,2.379,4.241c0.712,0.854,2.048,1.229,3.105,1.817
		c0.351-1.016,1.313-2.549,0.942-2.953C481.131,886.839,479.19,885.519,477.396,884.073z M590.185,913.518
		c-0.573,0.315-1.147,0.633-1.719,0.949c1.696,2.324,3.396,4.651,5.092,6.978c0.604-0.385,1.208-0.773,1.811-1.158
		C593.642,918.03,591.913,915.773,590.185,913.518z M419.576,9.282c0.137-0.616,0.274-1.231,0.413-1.846
		c-1.91-2.433-3.947-3.841-6.439-1.627c-0.111,0.658-0.225,1.316-0.335,1.974C415.333,8.282,417.456,8.782,419.576,9.282z
		 M793.739,160.662c-0.54,0.124-1.078,0.249-1.615,0.371c0.763,3.183,1.525,6.367,2.288,9.55c0.678-0.158,1.356-0.315,2.033-0.472
		C795.544,166.961,794.641,163.813,793.739,160.662z"/>
	<path fill="#DDDDDD" d="M231.634,565.081c1.409,2.663,3.071,5.236,4.174,8.008c1.923,4.821,0.32,7.759-4.894,8.954
		c-5.702,1.305-11.622,1.887-17.214,3.495c-14.355,4.126-28.563,8.705-42.868,12.983c-6.985,2.089-10.818,0.827-14.65-4.915
		c-3.917-5.87-7.474-11.958-11.332-17.867c-0.63-0.964-2.289-2.295-2.977-2.077c-2.846,0.9-6.409,1.653-8.055,3.697
		c-4.875,6.046-8.504,13.058-13.637,18.861c-1.551,1.753-6.461,1.246-9.725,0.848c-1.151-0.143-1.979-3.049-2.926-4.643
		c-7.174,3.625-14.743,1.991-23.645-0.995c2.204-1.302,3.138-1.979,4.176-2.442c3.73-1.661,4.818-4.231,3.765-8.144
		c-1.613-5.986-3.473-12.127,0.282-17.951c3.895-6.04,9.132-11.27,16.254-12.96c18.417-4.366,37.096-7.758,55.602-11.82
		c2.444-0.536,4.766-2.423,6.619-4.191c2.215-2.111,1.529-4.37-1.435-5.478c-2.086-0.778-4.375-1.018-6.56-1.556
		c-8.211-2.031-16.396-4.164-24.628-6.105c-5.727-1.352-11.504-2.508-17.283-3.628c-1.584-0.307-3.253-0.175-4.884-0.243
		c0.678,0.829,1.357,1.66,2.035,2.489c-8.439,1.233-13.946-8.38-24.485-5.371c1.35-1.814,1.873-3.336,2.788-3.583
		c2.227-0.6,4.842-1.307,6.929-0.713c4.92,1.402,5.333-1.038,6.048-4.635c0.426-2.141,2.327-4.262,4.123-5.796
		c2.657-2.271,5.586-4.493,8.821-5.824c2.486-1.022,5.62-0.843,8.465-0.8c1.59,0.024,3.181,0.858,4.897,1.366
		c0.52-7.522,1.66-8.474,9.215-8.256c0.692,0.019,1.7,0.321,2.031-0.005c7.346-7.219,16.162-1.569,24.23-2.157
		c12.607-0.916,23.049,5.544,33.793,10.643c9.697,4.6,19.479,9.105,28.761,14.415c3.444,1.969,5.469,6.184,8.308,9.231
		c6.741,7.235,6.074,16.483,7.928,25.044c0.209,0.966-0.221,2.129,0.181,2.971c4.016,8.438-2.374,13.841-6.164,19.89
		c-0.456,0.729-3.248,0.421-4.84,0.07c-2.192-0.485-4.269-1.469-6.395-2.236C232.188,564.128,231.912,564.604,231.634,565.081z
		 M94.626,572.961c-0.008,0.986-0.22,2.349,0.02,3.642c0.331,1.779,1.002,3.503,1.529,5.25c1.937-1.391,5.177-2.483,5.581-4.222
		c1.61-6.945,6.828-10.113,12.812-12.488c4.418-1.753,9.183-2.711,13.72-4.215c4.486-1.489,8.787-3.531,13.345-4.753
		c4.662-1.25,9.54-1.79,14.316-2.674c0.486-0.089,0.898-0.501,1.384-0.632c5.602-1.485,10.745-5.046,17.136-3.087
		c0.839,0.256,2.024-0.576,3.048-0.905c-0.477-0.999-0.687-2.46-1.49-2.897c-1.288-0.7-2.979-1.017-4.476-0.976
		c-6.378,0.186-12.896-0.128-19.086,1.018c-13.029,2.417-26.154,4.875-38.721,8.786C104.946,557.546,96.749,562.469,94.626,572.961z
		"/>
	<path fill="#DDDDDD" d="M336.967,972.41c-5.724,1.774-10.191,3.159-15.126,4.689c-3.064-1.868-8.286-1.418-10.775,1.396
		c-2.383,2.692-1.666,5.887,2.794,10.049c0.594-3.282,1.102-6.096,1.672-9.252c0.867,0.695,1.338,0.904,1.331,1.089
		c-0.314,7.53,6.525,9.759,11.205,13.339c2.981,2.282,6.855,3.48,10.773,5.382c-1.434-5.478-6.366-11.905,2.186-15.905
		c2.261,2.407,4.541,4.836,6.822,7.266c0.524-0.121,1.049-0.244,1.572-0.365c-0.462-3.141-0.926-6.28-1.39-9.42
		c0.614-0.162,1.226-0.323,1.84-0.485c1.023,2.921,2.05,5.839,2.583,7.357c3.717,1.465,6.467,2.771,9.356,3.638
		c5.623,1.688,11.321,3.129,17.176,3.571c1.729,1.756,3.57,3.423,5.142,5.297c0.896,1.071,1.634,2.438,1.879,3.759
		c0.117,0.628-1.388,2.184-1.65,2.081c-1.48-0.578-2.993-1.347-4.132-2.408c-1.077-1-1.703-2.445-2.615-3.825
		c-1.354,4.432-0.231,6.473,6.165,10.972c-1.718,1.001-3.23,1.882-4.713,2.748c-3.78-4.791-7.387-5.519-12.531-2.938
		c-1.048,0.525-2.297,0.689-3.445,1.045c-4.038,1.258-8.61,1.819-9.26,7.193c-0.091,0.753-1.354,1.358-1.376,1.378
		c-2.147-1.216-3.67-2.571-5.421-2.989c-8.288-1.974-17.307-1.751-24.026-8.219c-0.779-0.749-2.181-1.253-3.298-1.277
		c-5.678-0.127-11.374,0.252-17.032-0.129c-8.017-0.542-16.003-1.668-24.014-2.401c-4.822-0.442-9.673-0.855-14.503-0.849
		c-6.311,0.011-12.775,1.35-18.022-3.768c-0.489-0.478-1.995-0.356-2.854-0.063c-4.371,1.495-5.863-0.093-4.863-5.03
		c-2.618,1.883-4.645,3.337-7.192,5.17c-1.152-2.414-2.744-4.248-2.639-5.964c0.099-1.603,1.654-3.627,3.182-4.488
		c2.817-1.587,6.199-2.253,9.094-3.746c0.97-0.499,1.172-2.34,1.727-3.566c-1.211-0.377-2.399-0.887-3.638-1.094
		c-1.74-0.291-3.518-0.359-5.281-0.521c0.585-1.658,1.344-3.284,1.688-4.992c0.19-0.936,0.037-2.555-0.576-2.934
		c-3.101-1.91-6.83-4.388-4.384-7.716c1.642-2.235,6.352-3.531,9.556-3.281c5.382,0.425,10.827,1.968,15.931,3.853
		c6.159,2.278,11.581-0.239,17.335-0.907c9.545-1.112,18.959-2.536,28.693,0.811c5.767,1.983,12.317,1.78,18.516,2.563
		c4.119,0.518,8.264,0.906,12.345,1.635C334.145,970.402,335.362,971.517,336.967,972.41z"/>
	<path fill="#DDDDDD" d="M107.533,1009.49c-1.154,0.184-2.488,0.073-3.434,0.595c-7.696,4.261-15.297,8.672-22.985,12.946
		c-1.604,0.892-3.381,1.62-5.182,2.048c-4.861,1.157-9.801,2.021-14.665,3.165c-4.85,1.142-8.274-0.724-9.807-5.577
		c-2.289-7.243-1.328-8.203,4.138-10.766c14.046-6.585,29.002-4.681,43.797-4.646c1.214,0.002,2.43,0.141,3.645,0.185
		c1.114,0.041,2.229,0.037,3.345,0.053C106.766,1008.159,107.15,1008.825,107.533,1009.49z"/>
	<path fill="#DDDDDD" d="M424.703,989.047c-2.896,1.59-6.857,2.473-7.569,4.465c-0.987,2.765,0.463,6.364,0.71,8.321
		c-2.451,2.768-4.182,4.726-5.402,6.104c-6.425,0.181-12.882,0.577-19.328,0.34c-1.165-0.043-3.132-2.644-3.249-4.144
		c-0.449-5.878-0.066-11.802-0.519-17.678c-0.137-1.782-1.977-3.467-2.136-5.579c6.494,3.862,5.03,10.406,5.489,16.327
		c0.473,0.025,0.943,0.05,1.416,0.078c1.364-3.35,2.726-6.697,3.435-8.436c3.526-0.213,5.883,0.17,7.738-0.57
		c4.751-1.895,9.226-4.396,13.937-6.395c0.929-0.395,3.225,0.062,3.495,0.673C423.787,984.99,424.304,987.642,424.703,989.047z"/>
	<path fill="#DDDDDD" d="M137.782,91.947c0.898-8.14,38.297-35.162,51.076-36.746c-1.774,1.899-2.996,3.208-5.204,5.575
		c2.57-0.003,4.333,0.481,5.351-0.143c1.052-0.645,2.131-2.503,1.893-3.584c-0.903-4.11,0.554-5.378,4.796-5.391
		c1.502-0.004,2.962-2.142,4.66-3.479c-0.003,1.223-0.006,2.542-0.012,5.624c2.667-2.331,4.693-3.472,5.778-5.174
		c2.622-4.118,4.787-8.141,11.269-5.829c1.792,0.639,4.266-0.548,6.428-0.898c0.196,0.571,0.395,1.144,0.591,1.715
		c-2.662,1.078-5.563,1.812-7.942,3.302c-6.882,4.313-13.388,9.181-20.357,13.352c-6.695,4.007-13.755,7.469-20.75,11.004
		c-0.795,0.401-2.191-0.344-3.318-0.434c-0.958-0.076-2.454-0.35-2.81,0.112c-1.97,2.554-3.762,5.119-7.815,4.213
		c-0.091-0.019-0.606,1.887-0.948,2.887c-0.419,1.226-0.863,2.445-1.706,4.828c-2.032-5.211-5.255-5.525-6.721-2.219
		C149.169,87.125,141.226,86.687,137.782,91.947z"/>
	<path fill="#DDDDDD" d="M122.274,225.811c-1.35,2.397-2.459,4.369-3.573,6.339c-1.54,2.725-2.825,5.629-4.708,8.113
		c-1.524,2.008-3.534,3.881-5.754,5.138c-2.938,1.666-5.124,2.886-1.903,6.289c1.401,1.48-4.743,15.254-6.75,15.028
		c-1.394-0.156-3.865-2.311-3.692-3.113c1.063-4.94,2.667-9.774,4.268-14.586c0.403-1.211,1.193-2.616,2.254-3.245
		c6.183-3.663,7.283-10.425,10.155-15.936C114.689,225.779,116.998,224.583,122.274,225.811z"/>
	<path fill="#DDDDDD" d="M88.653,223.636c2.529,1.891,4.909,3.563,0.897,5.645c-0.747,0.387-1.475,2.459-1.243,2.647
		c5.802,4.689-0.652,8.928-0.245,13.378c0.207,2.275-0.001,4.577,0.045,6.866c0.101,5.102,0.67,10.252,0.139,15.279
		c-0.185,1.736-3.068,3.168-5.734,4.235C83.146,255.236,84.067,239.191,88.653,223.636z"/>
	<path fill="#DDDDDD" d="M91.521,284.133c6.145-6.71,11.828-12.913,17.509-19.116c0.551,0.169,1.103,0.339,1.654,0.509
		c-0.54,4.198-0.639,8.512-1.752,12.558c-0.953,3.461-2.235,8.155-4.91,9.451c-2.502,1.211-7.034-1.282-10.646-2.246
		C92.627,285.088,92,284.442,91.521,284.133z"/>
	<path fill="#DDDDDD" d="M90.579,323.667c-1.638-2.102-3.947-3.989-4.798-6.342c-3.727-10.32-1.361-20.794-0.735-31.213
		c1.85,2.963,3.955,5.816,5.477,8.924c1.512,3.09,0.738,5.517-3.89,5.829c1.545,7.382,3.057,14.597,4.567,21.811
		C90.993,323.008,90.786,323.337,90.579,323.667z"/>
	<path fill="#DDDDDD" d="M84.039,517.779c-2.338,0.213-3.522,0.354-4.714,0.423c-3.835,0.217-5.979,1.66-5.803,5.846
		c0.072,1.749-1.39,3.534-2.155,5.303c-2.516-1.272-6.047-1.998-7.231-3.986c-0.989-1.661-0.067-5.573,1.486-7.123
		C68.99,514.884,78.687,514.774,84.039,517.779z"/>
	<path fill="#DDDDDD" d="M126.665,328.826c3.866-7.411,11.01-11.474,17.702-16.013C141.195,320.873,134.016,324.921,126.665,328.826
		z"/>
	<path fill="#DDDDDD" d="M56.106,1050.702c4.503-2.322,8.163-4.305,11.939-6.069c0.667-0.311,2.439,0.095,2.614,0.541
		c0.356,0.925,0.346,2.311-0.16,3.134C68.326,1051.844,61.695,1053.216,56.106,1050.702z"/>
	<path fill="#DDDDDD" d="M440.317,990.182c0.945,3.791,1.881,6.044,1.869,8.28c-0.004,0.824-2.239,1.606-3.456,2.406
		c-1.255-1.948-3.122-3.804-3.499-5.89C435.049,993.983,437.69,992.557,440.317,990.182z"/>
	<path fill="#DDDDDD" d="M600.326,880.251c1.174,3.085,2.685,6.11,3.341,9.286c0.216,1.065-1.743,2.515-2.706,3.787
		c-1.013-0.767-2.883-1.538-2.893-2.301c-0.039-3.626,0.426-7.245,0.712-10.868C599.294,880.187,599.809,880.22,600.326,880.251z"/>
	<path fill="#DDDDDD" d="M530.159,926.905c7.068,4.146,7.949,5.392,6.687,10.005c-2.883-3.203-5.567-6.182-8.251-9.162
		C529.116,927.468,529.637,927.187,530.159,926.905z"/>
	<path fill="#DDDDDD" d="M74.301,507.146c2.786-0.005,5.593-0.199,8.344,0.115c0.722,0.083,1.271,1.749,1.9,2.688
		c-1.132,0.384-2.396,1.288-3.371,1.046c-2.289-0.569-4.439-1.687-6.644-2.582C74.454,507.989,74.377,507.567,74.301,507.146z"/>
	<path fill="#DDDDDD" d="M293.652,1100.268c-1.244,2.012-1.881,4.416-3.29,4.927c-1.366,0.494-3.523-0.962-5.193-2.685
		C287.672,1101.849,290.175,1101.188,293.652,1100.268z"/>
	<path fill="#DDDDDD" d="M389.682,941.134c1.788-0.66,3.577-1.321,6.628-2.447c-0.487,2.129-0.452,3.925-1.028,4.12
		c-1.61,0.542-3.475,0.422-5.239,0.563C389.922,942.626,389.802,941.88,389.682,941.134z"/>
	<path fill="#DDDDDD" d="M378.317,1348.309c2.024,0.466,4.05,0.932,7.099,1.633c-1.198,1.133-2.586,2.999-3.064,2.799
		c-1.888-0.785-3.485-2.22-5.189-3.415C377.548,1348.986,377.932,1348.647,378.317,1348.309z"/>
	<path fill="#FFFFFF" d="M539.048,536.813c-2.346,0.842-4.733,2.534-7.028,2.39c-19.766-1.243-39.516-2.787-59.267-4.314
		c-4.672-0.362-9.433-0.586-13.939-1.708c-1.995-0.497-4.917-3.156-4.844-4.683c0.137-2.853-0.379-6.615,4.512-7.832
		c6.466-1.608,12.539-4.557,18.97-6.331c7.091-1.956,14.333-3.594,21.628-4.677c4.719-0.699,9.675,0.074,14.486-0.24
		c3.867-0.252,7.659-1.469,11.523-1.635c2.483-0.104,5.043,0.885,7.551,1.447c7.782,1.75,15.593,3.399,23.306,5.411
		c1.587,0.415,4.096,2.393,3.974,3.364c-0.802,6.414,3.58,7.02,8.444,7.152c-3.325,7.785-8.234,9.935-16.081,8.617
		c-2.313-0.389-4.871,0.666-7.307,1.101c-1.906,0.341-3.798,0.746-5.694,1.123C539.204,536.271,539.125,536.542,539.048,536.813z"/>
	<path fill="#FFFFFF" d="M516.876,548.341c-4.361-0.25-8.722-0.633-13.082-0.715c-6.844-0.13-13.688,0.033-20.532-0.096
		c-4.273-0.082-8.556-0.358-12.805-0.838c-0.669-0.075-1.846-1.938-1.613-2.542c0.459-1.187,1.657-2.859,2.703-2.95
		c6.339-0.543,12.775-1.376,19.074-0.809c7.875,0.707,15.66,2.621,23.454,4.148c1.151,0.225,2.158,1.182,3.233,1.802
		C517.165,547.009,517.021,547.675,516.876,548.341z"/>
	<path fill="#FFFFFF" d="M103.071,187.95c1.828-4.636,3.581-9.304,5.511-13.899c1.029-2.452,2.097-4.954,3.61-7.133
		c4.325-6.232,5.525-13.087,6.551-20.479c0.616-4.434,6.099-8.176,9.394-12.228c1.031,1.311,2.979,2.705,2.875,3.91
		c-0.155,1.823-1.405,3.812-2.768,5.213c-7.994,8.212-8.468,19.88-14.39,29.074c-3.34,5.184-5.65,10.99-8.425,16.515
		C104.643,188.598,103.856,188.275,103.071,187.95z"/>
	<path fill="#FFFFFF" d="M473.076,918.169c5.935-3.547,6.557-3.408,12.034,2.661c-2.604,4.51-1.375,7.5,3.59,9.584
		c3.311,1.388,6.749,2.804,9.537,4.927c1.463,1.113,1.649,3.777,2.415,5.74c-0.434,0.268-0.868,0.537-1.304,0.804
		c-1.112-0.593-2.597-0.932-3.271-1.826c-2.23-2.965-5.037-3.911-8.763-4.479c-2.114-0.322-4.007-3.381-5.627-5.469
		c-3.029-3.907-5.788-8.006-8.657-12.024L473.076,918.169z"/>
	<path fill="#FFFFFF" d="M436.479,4.683c7.915-3.573,16.138-3.928,26.025-1.917C453.222,6.834,444.945,6.625,436.479,4.683z"/>
	<path fill="#FFFFFF" d="M487.055,952.21c7.302,1.667,7.371,1.587,6.377-7.632c5.192,0.182,5.895,1.09,4.117,5.228
		c-0.461,1.071-0.548,2.376-1.247,3.242c-1.539,1.905-3.358,3.601-5.062,5.38c-1.368-2.092-2.736-4.185-4.104-6.276L487.055,952.21z
		"/>
	<path fill="#FFFFFF" d="M484.521,984.264c0.468-0.643,0.936-1.289,1.402-1.932c2.965,2.264,5.968,4.487,8.794,6.902
		c0.161,0.137-1.135,1.848-1.638,2.646c-3.204-2.867-5.908-5.282-8.613-7.703L484.521,984.264z"/>
	<path fill="#FFFFFF" d="M329.811,1105.701c-5.371-4.427-5.163-6.614-0.074-9.705
		C329.764,1099.521,329.788,1102.61,329.811,1105.701z"/>
	<path fill="#FFFFFF" d="M170.934,1082.525c1.231-1.979,2.463-3.956,3.697-5.935c0.994,0.708,2.918,1.927,2.844,2.053
		c-1.133,1.944-2.526,3.748-3.859,5.585C172.722,1083.66,171.827,1083.095,170.934,1082.525z"/>
	<path fill="#FFFFFF" d="M477.396,884.073c1.794,1.445,3.735,2.767,5.274,4.426c0.371,0.404-0.592,1.938-0.942,2.954
		c-1.057-0.59-2.393-0.965-3.105-1.818c-1.029-1.232-1.607-2.81-2.379-4.241C476.63,884.952,477.012,884.514,477.396,884.073z"/>
	<path fill="#FFFFFF" d="M590.185,913.518c1.728,2.257,3.457,4.513,5.185,6.769c-0.604,0.385-1.208,0.773-1.81,1.157
		c-1.697-2.325-3.396-4.652-5.093-6.977C589.038,914.15,589.613,913.832,590.185,913.518z"/>
	<path fill="#FFFFFF" d="M419.576,9.282c-2.121-0.5-4.242-1-6.362-1.499c0.111-0.658,0.225-1.315,0.334-1.974
		c2.494-2.214,4.53-0.807,6.439,1.626C419.849,8.051,419.713,8.666,419.576,9.282z"/>
	<path fill="#FFFFFF" d="M793.739,160.662c0.902,3.149,1.805,6.3,2.706,9.449c-0.677,0.156-1.355,0.314-2.033,0.472
		c-0.763-3.184-1.525-6.367-2.288-9.55C792.662,160.91,793.2,160.786,793.739,160.662z"/>
	<path fill="#FFFFFF" d="M94.626,572.961c2.123-10.492,10.32-15.414,19.115-18.152c12.566-3.912,25.692-6.37,38.721-8.787
		c6.189-1.147,12.709-0.831,19.087-1.018c1.496-0.042,3.188,0.275,4.476,0.975c0.804,0.438,1.012,1.898,1.49,2.897
		c-1.024,0.328-2.21,1.16-3.047,0.905c-6.39-1.959-11.533,1.602-17.135,3.087c-0.486,0.131-0.897,0.541-1.384,0.632
		c-4.776,0.885-9.654,1.423-14.316,2.674c-4.559,1.222-8.859,3.264-13.345,4.753c-4.537,1.503-9.301,2.462-13.72,4.215
		c-5.983,2.376-11.201,5.542-12.813,12.488c-0.404,1.739-3.644,2.832-5.581,4.222c-0.526-1.748-1.198-3.472-1.528-5.25
		C94.406,575.31,94.618,573.947,94.626,572.961z"/>
</g>
<g>
	<path fill="#DDDDDD" d="M394.861,738.716c-0.685-1.484-1.18-3.199-1.17-4.796c0.047-8.212-4.312-15.018-7.689-22.153
		c-2.196-4.646-4.282-9.333-6.315-13.778c-3.478-2.158-6.748-4.463-10.292-6.255c-1.514-0.77-3.598-0.481-5.422-0.674
		c0.155,1.42,0.096,2.899,0.519,4.247c0.591,1.888,1.683,3.635,2.312,5.516c1.732,5.192,3.378,10.414,4.98,15.646
		c1.15,3.764,2.297,7.539,3.13,11.367c0.142,0.636-1.33,1.571-2.054,2.371c-0.919,1.013-2.684,2.141-2.542,3.01
		c0.189,1.154,1.761,2.237,2.935,3.108c0.968,0.716,2.217,1.079,3.342,1.6c-2.675,1.004-6.667,1.729-7.33,0.631
		c-3.103-5.12-5.038-1.412-7.706-0.006c-1.658,0.878-4.409,1.656-5.792,0.924c-5.369-2.844-10.386-6.311-14.161-8.684
		c-2.667,1.538-5.132,3.424-5.504,3.101c-2.589-2.266-5.367-4.702-6.854-7.644c-1.362-2.688-2.711-3.923-5.739-4.007
		c-1.459-0.039-3.291-0.559-4.281-1.507c-2.18-2.089-3.846-1.682-6.441-0.64c-2.852,1.146-7.672,2.525-9.177,1.209
		c-4.925-4.299-7.261-1.127-10.239,1.634c-0.585,0.545-1.516,1.189-2.217,1.11c-9.1-1.03-16.822,5.729-26.063,3.833
		c-0.417-0.087-1.159,0.188-1.377,0.519c-3.252,4.932-7.042,9.206-13.315,10.716c-0.388,0.093-0.649,0.745-0.913,1.17
		c-3.356,5.389-9.466,6.257-14.159,4.337c-6.395-2.616-11.746-0.493-18.521-0.011c0.875,3.479,1.661,6.595,2.458,9.755
		c-1.372-0.787-3.341-1.747-5.117-2.968c-4.263-2.933-8.291-6.215-12.726-8.867c-1.526-0.913-5.222-1.158-5.756-0.356
		c-1.264,1.888-1.468,4.572-1.61,6.971c-0.083,1.396,1.388,2.979,1.122,4.267c-1.415,6.854,2.493,10.552,8.116,13.531
		c2.442,1.293,4.739,2.871,7.005,4.445c5.625,3.917,11.368,7.307,19.41,4.492c-1.345,3.506-2.373,6.181-3.484,9.071
		c3.123-0.395,5.208-0.66,7.293-0.924c-0.57,2.023-1.138,4.047-1.821,6.478c3.677-1.727,7.106-3.481,10.68-4.913
		c0.93-0.374,2.314,0.26,3.49,0.434c-0.672,0.941-1.213,2.02-2.055,2.793c-0.936,0.859-2.149,1.445-3.242,2.152
		c0.226,0.365,0.451,0.734,0.677,1.103c1.385-0.459,2.819-1.4,4.145-1.257c1.849,0.199,4.427,0.723,5.256,1.971
		c2.161,3.253,3.144,6.675,0.5,10.612c-0.726,1.081-1.381,2.217-1.864,3.395l0,0h10.833c-0.068-0.411-0.176-0.697-0.335-0.75
		c-4.191-1.389-0.348-4.533-1.875-6.336c1.247-0.821,2.48-1.665,3.747-2.457c1.42-0.891,2.795-1.901,4.335-2.547
		c1.09-0.457,2.646-0.896,3.609-0.486c4.256,1.809,9.728,2.737,8.893,9.163c-0.016,0.125,0.546,0.327,1.722,0.993
		c0.832-2.505,1.597-4.816,2.37-7.148c9.753-2.029,11.946,1.94,8.368,15.141c10.357,4.842,20.67,9.659,31.209,14.582
		c1.49-3.075,4.415-2.095,8.171-1.307c3.45,0.725,7.348-0.636,11.051-1.077c-0.73-1.892-1.459-3.782-2.518-6.539
		c2.784-3.503,7.446-0.762,12.264-0.672c-1.003-1.995-1.7-3.379-1.79-3.558c-2.988-0.54-4.709-0.851-6.429-1.162
		c0.983-1.504,1.614-3.684,3.032-4.342c1.891-0.878,4.395-0.569,6.779-0.786c-1.18-1.173-2.233-2.218-3.508-3.483
		c3.202-1.074,6.286-1.186,7.341-2.657c2.263-3.149,4.709-3.682,8.347-3.004c1.732,0.321,3.764-0.342,5.525-0.919
		c4.735-1.555,9.542-3.022,14.063-5.036c8.237-3.667,15.408-8.462,15.768-18.407C400.688,761.972,400.09,750.058,394.861,738.716z"
		/>
	<path fill="#DDDDDD" d="M246.46,829.282c0.14,0.189,0.271,0.376,0.385,0.555c0.222-0.222,0.435-0.434,0.652-0.65L246.46,829.282z"
		/>
</g>
</svg>
