<?xml version="1.0" encoding="utf-8"?>
<!-- Generator: Adobe Illustrator 16.0.0, SVG Export Plug-In . SVG Version: 6.00 Build 0)  -->
<!DOCTYPE svg PUBLIC "-//W3C//DTD SVG 1.1//EN" "http://www.w3.org/Graphics/SVG/1.1/DTD/svg11.dtd">
<svg version="1.1" id="Layer_1" xmlns="http://www.w3.org/2000/svg" xmlns:xlink="http://www.w3.org/1999/xlink" x="0px" y="0px"
	 width="131.76px" height="31.68px" viewBox="-46.079 0 131.76 31.68" enable-background="new -46.079 0 131.76 31.68"
	 xml:space="preserve">
<g>
	<path fill="#DEDDDD" d="M-46.079,14.122l17.979-9.372v3.918l-13.777,7.029l13.777,7.032v3.916l-17.979-9.371V14.122z"/>
</g>
<g>
	<path fill="#DEDDDD" d="M-4.987,11.95V7.839c0-0.728-0.146-1.238-0.51-1.673c-0.182-0.182-0.472-0.292-0.799-0.292
		c-0.692,0-1.019,0.51-1.165,0.982c-0.109,0.292-0.147,0.62-0.147,0.982V23.92c0,0.765,0.183,1.273,0.547,1.674
		c0.183,0.184,0.437,0.293,0.765,0.293c0.69,0,1.018-0.437,1.164-0.984c0.108-0.255,0.146-0.581,0.146-0.982v-4.839h-1.564v-3.31
		h5.495v13.317h-2.329l-0.474-1.274c-0.727,0.909-1.782,1.565-3.056,1.565c-1.274,0-2.146-0.328-2.801-0.911
		c-0.655-0.544-1.092-1.235-1.384-1.964c-0.327-0.836-0.473-1.819-0.435-2.911V7.839c0.035-1.055,0.254-2.038,0.654-2.875
		c0.328-0.727,0.8-1.455,1.527-2.001c0.729-0.544,1.747-0.909,3.058-0.909c1.31,0,2.292,0.365,3.019,0.909
		C-2.551,3.51-2.04,4.237-1.713,4.964c0.401,0.837,0.62,1.819,0.657,2.875v4.112H-4.987z"/>
	<path fill="#DEDDDD" d="M10.919,24.248c-0.109,1.929-0.691,3.275-1.964,4.329c-0.655,0.547-1.564,0.802-2.766,0.802
		c-2.365,0-3.53-1.312-4.112-2.62c-0.327-0.765-0.545-1.638-0.582-2.62V14.134c0.11-1.928,0.692-3.348,1.966-4.439
		c0.618-0.545,1.527-0.8,2.729-0.8c2.366,0,3.566,1.31,4.147,2.584c0.328,0.764,0.547,1.601,0.583,2.546V24.248z M7.464,14.134
		c0.036-0.764-0.11-1.309-0.474-1.747c-0.181-0.182-0.473-0.292-0.8-0.292c-0.691,0-0.982,0.474-1.127,1.019
		c-0.109,0.292-0.146,0.619-0.109,1.019v10.005c-0.037,0.764,0.145,1.312,0.473,1.711c0.182,0.182,0.437,0.29,0.764,0.29
		c0.692,0,1.019-0.436,1.164-0.982c0.11-0.29,0.146-0.617,0.11-1.019V14.134z"/>
	<path fill="#DEDDDD" d="M19.116,29.088V2.344h3.456c2.328,0,4.148,0.437,5.349,1.565c1.2,1.128,1.819,2.874,1.819,5.53
		c0,1.274-0.109,2.221-0.51,3.093c-0.4,0.874-1.018,1.601-1.928,2.438c0.98,0.545,1.709,1.565,2.293,3.273
		c0.289,0.838,0.436,1.93,0.436,3.276c0,2-0.363,3.782-1.271,5.166c-0.912,1.382-2.478,2.292-4.805,2.402H19.116z M23.044,13.369
		c0.326,0,1.092,0.037,1.746-0.4c0.655-0.437,1.165-1.31,1.165-3.166s-0.51-2.729-1.165-3.165c-0.654-0.438-1.42-0.4-1.746-0.4
		V13.369z M23.044,25.194c0.326,0,1.092,0.074,1.746-0.399c0.655-0.473,1.165-1.528,1.165-3.712c0-2.182-0.51-3.237-1.165-3.709
		c-0.654-0.474-1.42-0.402-1.746-0.402V25.194z"/>
	<path fill="#DEDDDD" d="M37.934,13.914c0-0.327,0-0.835-0.109-1.199c-0.146-0.364-0.437-0.619-0.908-0.619
		c-0.62,0-0.875,0.474-0.983,1.056c-0.036,0.291-0.072,0.618-0.072,0.945s0,0.655,0,0.947h-3.676v-0.837
		c0-1.456,0.546-2.766,1.421-3.748c0.871-0.982,2.108-1.565,3.527-1.565c1.201,0,2.293,0.473,3.131,1.273
		c0.834,0.801,1.344,1.929,1.344,3.24v12.225c0,1.783,0.109,2.583,0.255,3.457h-3.602c-0.327-0.399-0.327-1.347-0.327-1.602h-0.255
		c-0.182,0.327-0.509,0.801-1.02,1.202c-0.509,0.399-1.199,0.69-1.928,0.69c-0.473,0-1.235-0.182-1.819-0.911
		c-0.618-0.69-1.128-1.928-1.128-4.001c0-2.22,0.656-3.821,1.527-4.912c0.875-1.092,1.965-1.783,2.876-2.256
		c0.91-0.474,1.6-0.801,1.746-1.201V13.914z M37.934,19.481c-1.783,0.765-2.547,2.548-2.547,4.439c0,0.256,0.037,0.692,0.182,1.092
		c0.146,0.438,0.4,0.766,0.837,0.766c0.838,0,1.528-0.51,1.528-1.202V19.481z"/>
	<path fill="#DEDDDD" d="M47.51,24.503c0,0.728,0.036,1.601,1.019,1.601c0.836,0,1.055-0.399,1.055-1.601v-2.767h3.676v1.929
		c0,2.222-0.401,3.64-1.202,4.512c-0.8,0.874-1.964,1.202-3.528,1.202c-1.312,0-2.51-0.364-3.347-1.274
		c-0.838-0.908-1.348-2.4-1.348-4.621v-8.695c0-2.219,0.51-3.71,1.348-4.622c0.837-0.91,2.035-1.273,3.347-1.273
		c1.564,0,2.729,0.328,3.528,1.201c0.801,0.874,1.202,2.292,1.202,4.512v1.564h-3.676v-2.402c0-1.199-0.219-1.601-1.055-1.601
		c-0.982,0-1.019,0.874-1.019,1.601V24.503z"/>
	<path fill="#DEDDDD" d="M59.266,2.344v12.699h0.184l0.22-0.655l1.782-5.204h3.31l-2.655,6.476l3.348,13.428h-3.53l-1.819-8.042
		l-0.072-0.29H59.85l-0.108,0.29l-0.476,1.165v6.877h-3.674V2.344H59.266z"/>
</g>
<g>
	<path fill="#DEDDDD" d="M85.681,17.274l-17.979,9.371v-3.916l13.777-7.032L67.702,8.668V4.75l17.979,9.372V17.274z"/>
</g>
<g>
	<path fill="#DEDDDD" d="M-16.646,0.053h3.094l-10.258,31.593h-3.21L-16.646,0.053z"/>
</g>
</svg>
