<?xml version="1.0" encoding="utf-8"?>
<!-- Generator: Adobe Illustrator 16.0.0, SVG Export Plug-In . SVG Version: 6.00 Build 0)  -->
<!DOCTYPE svg PUBLIC "-//W3C//DTD SVG 1.1//EN" "http://www.w3.org/Graphics/SVG/1.1/DTD/svg11.dtd">
<svg version="1.1" id="Layer_1" xmlns="http://www.w3.org/2000/svg" xmlns:xlink="http://www.w3.org/1999/xlink" x="0px" y="0px"
	 width="155.464px" height="29.725px" viewBox="0 0 155.464 29.725" enable-background="new 0 0 155.464 29.725"
	 xml:space="preserve">
<g>
	<g>
		<path fill="#DEDDDD" d="M15.854,22.458c0,2.863-2.643,4.294-7.927,4.294S0,25.322,0,22.458V6.605c0-2.862,2.643-4.293,7.927-4.293
			s7.927,1.431,7.927,4.293v3.303h-3.303V7.266c0-1.542-1.542-2.312-4.624-2.312c-3.083,0-4.624,0.771-4.624,2.312v14.532
			c0,1.541,1.541,2.313,4.624,2.313c3.082,0,4.624-0.771,4.624-2.313v-2.643h3.303V22.458z"/>
		<path fill="#DEDDDD" d="M18.813,2.642h10.569c3.522,0,5.284,1.321,5.284,3.963v3.963c0,2.642-1.102,3.963-3.303,3.963
			c2.201,0,3.303,1.321,3.303,3.963v6.605c0,0.881,0.44,1.321,1.321,1.321h-3.303c-0.881,0-1.321-0.44-1.321-1.321v-7.266
			c0-1.322-0.881-1.982-2.643-1.982h-6.605v10.569h-3.303V2.642z M28.721,13.211c1.762,0,2.643-0.661,2.643-1.981V7.266
			c0-1.321-0.881-1.982-2.643-1.982h-6.605v7.927H28.721z"/>
		<path fill="#DEDDDD" d="M40.928,5.284v7.597h8.257v2.642h-8.257v8.258h9.908v2.642H37.625V2.642h13.211v2.642H40.928z"/>
		<path fill="#DEDDDD" d="M60.629,2.642h3.699l8.059,23.78h-3.963l-2.114-6.605h-7.662l-2.114,6.605H52.57L60.629,2.642z
			 M65.451,17.174l-2.973-9.512l-2.973,9.512H65.451z"/>
		<path fill="#DEDDDD" d="M78.03,26.422V5.284h-6.605V2.642h16.514v2.642h-6.605v21.138H78.03z"/>
		<path fill="#DEDDDD" d="M106.435,22.458c0,2.863-2.643,4.294-7.927,4.294s-7.927-1.431-7.927-4.294V6.605
			c0-2.862,2.643-4.293,7.927-4.293s7.927,1.431,7.927,4.293V22.458z M103.132,7.266c0-1.542-1.542-2.312-4.624-2.312
			c-3.083,0-4.624,0.771-4.624,2.312v14.532c0,1.541,1.541,2.313,4.624,2.313c3.082,0,4.624-0.771,4.624-2.313V7.266z"/>
		<path fill="#DEDDDD" d="M109.773,2.642h10.569c3.522,0,5.284,1.321,5.284,3.963v3.963c0,2.642-1.102,3.963-3.303,3.963
			c2.201,0,3.303,1.321,3.303,3.963v6.605c0,0.881,0.44,1.321,1.321,1.321h-3.303c-0.881,0-1.321-0.44-1.321-1.321v-7.266
			c0-1.322-0.881-1.982-2.643-1.982h-6.605v10.569h-3.303V2.642z M119.682,13.211c1.762,0,2.643-0.661,2.643-1.981V7.266
			c0-1.321-0.881-1.982-2.643-1.982h-6.605v7.927H119.682z"/>
		<path fill="#DEDDDD" d="M137.224,2.642c-3.303,1.321-4.954,5.285-4.954,11.89c0,6.606,1.651,10.569,4.954,11.89v2.642
			c-5.505-0.881-8.257-5.725-8.257-14.532c0-8.808,2.752-13.651,8.257-14.532V2.642z"/>
		<path fill="#DEDDDD" d="M140.563,26.422c3.303-1.321,4.954-5.284,4.954-11.89c0-6.605-1.651-10.569-4.954-11.89V0
			c5.505,0.881,8.257,5.725,8.257,14.532c0,8.807-2.752,13.651-8.257,14.532V26.422z"/>
		<path fill="#DEDDDD" d="M152.161,14.862c0-1.101,0.55-1.651,1.651-1.651c1.101,0,1.651,0.551,1.651,1.651
			c0,1.101-0.551,1.651-1.651,1.651C152.711,16.513,152.161,15.963,152.161,14.862z M152.161,24.771c0-1.102,0.55-1.651,1.651-1.651
			c1.101,0,1.651,0.55,1.651,1.651c0,3.303-1.102,4.954-3.303,4.954v-0.991c1.101,0,1.651-0.771,1.651-2.312
			C152.711,26.422,152.161,25.873,152.161,24.771z"/>
	</g>
</g>
</svg>
