<?xml version="1.0" encoding="utf-8"?>
<!-- Generator: Adobe Illustrator 16.0.0, SVG Export Plug-In . SVG Version: 6.00 Build 0)  -->
<!DOCTYPE svg PUBLIC "-//W3C//DTD SVG 1.1//EN" "http://www.w3.org/Graphics/SVG/1.1/DTD/svg11.dtd">
<svg version="1.1" id="Layer_1" xmlns="http://www.w3.org/2000/svg" xmlns:xlink="http://www.w3.org/1999/xlink" x="0px" y="0px"
	 width="174.213px" height="29.725px" viewBox="0 0 174.213 29.725" enable-background="new 0 0 174.213 29.725"
	 xml:space="preserve">
<g>
	<g>
		<path fill="#DFDDDD" d="M0,14.531l10.569-8.587l2.642,1.321l-9.248,7.266l9.248,7.267l-2.642,1.322L0,14.531z"/>
		<path fill="#DFDDDD" d="M17.375,2.641h11.229c3.082,0,4.624,1.32,4.624,3.963v15.854c0,2.643-1.542,3.965-4.624,3.965H17.375
			V2.641z M27.283,23.78c1.762,0,2.643-0.66,2.643-1.982V7.265c0-1.321-0.881-1.982-2.643-1.982h-6.605V23.78H27.283z"/>
		<path fill="#DFDDDD" d="M40.695,5.283v7.597h8.257v2.642h-8.257v8.258h9.908v2.643h-13.21V2.641h13.211v2.642H40.695z"/>
		<path fill="#DFDDDD" d="M61.109,11.73l3.171,0.488c4.228,0.661,6.342,2.313,6.342,4.956v5.283c0,2.863-2.643,4.295-7.927,4.295
			c-5.284,0-7.927-1.432-7.927-4.295v-3.303h3.303v2.643c0,1.541,1.541,2.313,4.624,2.313c3.082,0,4.624-0.771,4.624-2.313v-3.963
			c0.044-1.32-0.969-2.149-3.039-2.483l-3.171-0.49c-4.228-0.66-6.341-2.091-6.341-4.293V6.604c0-2.862,2.643-4.293,7.927-4.293
			c5.284,0,7.927,1.431,7.927,4.293v3.303h-3.303V7.265c0-1.542-1.542-2.313-4.624-2.313c-3.083,0-4.624,0.771-4.624,2.313v1.98
			C58.071,10.567,59.084,11.396,61.109,11.73z"/>
		<path fill="#DFDDDD" d="M74.786,26.42v-2.643h1.321V5.283h-1.321V2.641h5.945v2.642H79.41V23.78h1.321v2.643h-5.945V26.42z"/>
		<path fill="#DFDDDD" d="M100.748,26.42h-1.492l-1.029-2.313c-0.521,1.762-2.322,2.643-5.404,2.643
			c-5.283,0-7.926-1.432-7.926-4.293V6.604c0-2.862,2.643-4.293,7.926-4.293c5.285,0,7.928,1.431,7.928,4.293v3.303h-3.303V7.265
			c0-1.542-1.543-2.313-4.625-2.313s-4.623,0.771-4.623,2.313v14.532c0,1.541,1.541,2.313,4.623,2.313s4.625-0.771,4.625-2.313
			v-5.944h-6.5v-2.644h9.803V26.42H100.748z"/>
		<path fill="#DFDDDD" d="M108.875,2.641l7.268,17.176V2.641h3.303V26.42h-3.963l-7.268-17.175V26.42h-3.303V2.641H108.875z"/>
		<path fill="#DFDDDD" d="M126.912,5.283v7.597h8.256v2.642h-8.256v8.258h9.908v2.643h-13.211V2.641h13.211v2.642H126.912z"/>
		<path fill="#DFDDDD" d="M140.984,2.641h10.568c3.521,0,5.283,1.32,5.283,3.963v3.963c0,2.642-1.102,3.963-3.303,3.963
			c2.201,0,3.303,1.322,3.303,3.963v6.605c0,0.881,0.441,1.322,1.322,1.322h-3.303c-0.881,0-1.322-0.441-1.322-1.322v-7.266
			c0-1.323-0.881-1.981-2.643-1.981h-6.605V26.42h-3.303V2.641H140.984z M150.893,13.209c1.762,0,2.643-0.661,2.643-1.98V7.265
			c0-1.321-0.881-1.982-2.643-1.982h-6.605v7.927H150.893z"/>
		<path fill="#DFDDDD" d="M174.213,14.531l-10.568,8.589l-2.643-1.322l9.248-7.267l-9.248-7.266l2.643-1.321L174.213,14.531z"/>
	</g>
</g>
</svg>
