<?xml version="1.0" encoding="utf-8"?>
<!-- Generator: Adobe Illustrator 16.0.0, SVG Export Plug-In . SVG Version: 6.00 Build 0)  -->
<!DOCTYPE svg PUBLIC "-//W3C//DTD SVG 1.1//EN" "http://www.w3.org/Graphics/SVG/1.1/DTD/svg11.dtd">
<svg version="1.1" id="Layer_1" xmlns="http://www.w3.org/2000/svg" xmlns:xlink="http://www.w3.org/1999/xlink" x="0px" y="0px"
	 width="194.358px" height="29.725px" viewBox="0 0 194.358 29.725" enable-background="new 0 0 194.358 29.725"
	 xml:space="preserve">
<g>
	<path fill="#DFDDDD" d="M17.176,1.98L3.303,27.083H0L13.873,1.98H17.176z"/>
	<path fill="#DFDDDD" d="M31.696,1.98L17.824,27.083H14.52L28.393,1.98H31.696z"/>
	<path fill="#DFDDDD" d="M31.682,2.641h11.229c3.082,0,4.624,1.32,4.624,3.963v15.852c0,2.645-1.542,3.965-4.624,3.965H31.682V2.641
		z M41.59,23.78c1.762,0,2.643-0.662,2.643-1.982V7.265c0-1.321-0.881-1.982-2.643-1.982h-6.605V23.78H41.59z"/>
	<path fill="#DFDDDD" d="M53.481,5.282v7.596h8.257v2.644h-8.257v8.258h9.908v2.641H50.178V2.641h13.211v2.642H53.481z"/>
	<path fill="#DFDDDD" d="M77.261,26.42h-3.699l-8.059-23.78h3.963l5.945,18.76l5.945-18.76h3.963L77.261,26.42z"/>
	<path fill="#DFDDDD" d="M90.736,5.282v7.596h8.256v2.644h-8.256v8.258h9.909v2.641H87.433V2.641h13.211v2.642H90.736z"/>
	<path fill="#DFDDDD" d="M103.287,26.42V2.641h3.303V23.78h9.908v2.641H103.287L103.287,26.42z"/>
	<path fill="#DFDDDD" d="M134.994,22.458c0,2.863-2.643,4.293-7.928,4.293c-5.283,0-7.926-1.43-7.926-4.293V6.604
		c0-2.862,2.643-4.293,7.926-4.293c5.285,0,7.928,1.431,7.928,4.293V22.458z M131.691,7.265c0-1.542-1.541-2.313-4.625-2.313
		c-3.082,0-4.623,0.771-4.623,2.313v14.531c0,1.541,1.541,2.314,4.623,2.314c3.084,0,4.625-0.771,4.625-2.314V7.265z"/>
	<path fill="#DFDDDD" d="M137.611,2.641h9.934c3.965,0,5.945,1.542,5.945,4.624v5.283c0,3.083-1.98,4.625-5.945,4.625h-6.605v9.248
		h-3.316L137.611,2.641z M146.225,14.531c2.643,0,3.963-0.881,3.963-2.643V7.925c0-1.762-1.32-2.643-3.963-2.643h-5.285v9.249
		H146.225z"/>
	<path fill="#DFDDDD" d="M159.436,5.282v7.596h8.256v2.644h-8.256v8.258h9.908v2.641h-13.211V2.641h13.211v2.642H159.436z"/>
	<path fill="#DFDDDD" d="M171.986,2.641h10.568c3.521,0,5.283,1.32,5.283,3.963v3.963c0,2.642-1.102,3.964-3.303,3.964
		c2.201,0,3.303,1.32,3.303,3.962v6.605c0,0.881,0.439,1.32,1.32,1.32h-3.303c-0.881,0-1.32-0.439-1.32-1.32v-7.266
		c0-1.322-0.881-1.982-2.643-1.982h-6.605v10.568h-3.303V2.641H171.986z M181.895,13.209c1.762,0,2.643-0.66,2.643-1.98V7.265
		c0-1.321-0.881-1.982-2.643-1.982h-6.605v7.926L181.895,13.209L181.895,13.209z"/>
	<path fill="#DFDDDD" d="M191.129,24.795c0-1.129,0.541-1.689,1.625-1.689s1.625,0.563,1.625,1.689c0,1.117-0.541,1.678-1.625,1.678
		S191.129,25.915,191.129,24.795z"/>
</g>
</svg>
