<?xml version="1.0" encoding="utf-8"?>
<!-- Generator: Adobe Illustrator 16.0.0, SVG Export Plug-In . SVG Version: 6.00 Build 0)  -->
<!DOCTYPE svg PUBLIC "-//W3C//DTD SVG 1.1//EN" "http://www.w3.org/Graphics/SVG/1.1/DTD/svg11.dtd">
<svg version="1.1" id="Layer_1" xmlns="http://www.w3.org/2000/svg" xmlns:xlink="http://www.w3.org/1999/xlink" x="0px" y="0px"
	 width="360px" height="360px" viewBox="0 0 360 360" enable-background="new 0 0 360 360" xml:space="preserve">
<g>
	<g>
		<polygon fill="#2F2F2F" points="127.07,259.086 53.529,259.086 53.529,15.806 127.07,15.806 127.07,53.959 95.273,53.959 
			95.273,220.934 127.07,220.934 		"/>
	</g>
</g>
<g>
	<g>
		<polygon fill="#2F2F2F" points="306.471,256.813 232.93,256.813 232.93,218.659 264.727,218.659 264.727,51.685 232.93,51.685 
			232.93,13.532 306.471,13.532 		"/>
	</g>
</g>
<g>
	<path fill="#2F2F2F" d="M180.586,343.573h-0.011c-59.709-0.323-110.071-16.27-153.961-48.745l-0.811-0.6v-22.654l3.149,2.212
		c42.541,29.883,92.137,44.409,151.624,44.409c56.793,0,106.021-14.59,150.503-44.603l3.118-2.104v22.741l-0.801,0.602
		C289.602,327.629,239.617,343.57,180.586,343.573z"/>
</g>
</svg>
