<?xml version="1.0" encoding="utf-8"?>
<!-- Generator: Adobe Illustrator 16.0.0, SVG Export Plug-In . SVG Version: 6.00 Build 0)  -->
<!DOCTYPE svg PUBLIC "-//W3C//DTD SVG 1.1//EN" "http://www.w3.org/Graphics/SVG/1.1/DTD/svg11.dtd">
<svg version="1.1" id="Layer_1" xmlns="http://www.w3.org/2000/svg" xmlns:xlink="http://www.w3.org/1999/xlink" x="0px" y="0px"
	 width="360px" height="360px" viewBox="0 0 360 360" enable-background="new 0 0 360 360" xml:space="preserve">
<g>
	<g>
		<g>
			<path fill="#2F2F2F" d="M62.837,250.16l-2.561-3.242c-17.588-22.26-30.132-45.246-39.478-72.341
				c-4.925-14.398-7.316-29.531-7.316-46.276c0-26.812,7.953-54.942,23.639-83.612C44.013,32.092,51.816,20.381,60.316,9.88
				l2.567-3.171l36.163,14.702l-5.129,5.814c-13.83,15.678-23.924,34.29-32.727,60.35c-4.092,12.577-6.09,25.918-6.09,40.726
				c0,24.384,6.354,48.294,19.426,73.088c5.856,10.379,12.41,19.914,19.48,28.34l4.854,5.785L62.837,250.16z"/>
		</g>
	</g>
	<g>
		<g>
			<path fill="#2F2F2F" d="M297.162,250.16l-36.023-14.646l4.854-5.785c7.067-8.426,13.623-17.959,19.481-28.34
				c13.069-24.8,19.426-48.708,19.426-73.088c0-14.806-2-28.146-6.11-40.784c-8.785-26.002-18.879-44.615-32.707-60.291
				l-5.129-5.814L297.116,6.71l2.565,3.17c8.498,10.498,16.305,22.208,23.198,34.809c15.687,28.672,23.638,56.803,23.638,83.612
				c0,16.741-2.393,31.874-7.313,46.263c-9.35,27.105-21.895,50.09-39.482,72.355L297.162,250.16z"/>
		</g>
	</g>
	<g>
		<g>
			<path fill="#2F2F2F" d="M204.825,287.525h-21.05l55.6-118.708h20.417L204.825,287.525z"/>
		</g>
	</g>
	<g>
		<g>
			<path fill="#2F2F2F" d="M174.601,286.891h-21.049l-0.536-1.16l-54.43-117.545h20.417l0.54,1.151L174.601,286.891z"/>
		</g>
	</g>
	<g>
		<g>
			<path fill="#2F2F2F" d="M259.963,143.168h-19.459v-3c0-6.124-0.375-10.395-2.242-12.761c-1.313-1.66-3.457-3.198-10.182-3.198
				h-31.167c-7.332,0-12.946-2.513-17.382-7.847c-4.542,5.396-10.025,7.847-17.32,7.847h-31.175c-6.723,0-8.86,1.536-10.169,3.196
				c-1.878,2.372-2.254,6.642-2.254,12.763v3H99.157l-0.039-2.961c-0.19-14.615,1.534-22.848,5.953-28.415
				c4.948-6.229,12.956-9.007,25.965-9.007h31.175c0.489,0,2.392-0.283,4.632-1.543c2.094-1.256,3.195-3.183,3.294-5.851
				l0.107-2.889h18.742v3c0,2.678,1.021,4.556,3.128,5.741c1.948,1.163,4.104,1.541,4.799,1.541h31.167
				c13.011,0,21.02,2.777,25.969,9.005c4.417,5.565,6.143,13.798,5.952,28.417L259.963,143.168z"/>
		</g>
	</g>
	<g>
		<g>
			<polygon fill="#2F2F2F" points="239.486,353.291 119.787,353.291 119.787,314.723 145.881,314.723 145.881,327.195 
				213.395,327.195 213.395,314.723 239.486,314.723 			"/>
		</g>
	</g>
</g>
</svg>
