<?xml version="1.0" encoding="utf-8"?>
<!-- Generator: Adobe Illustrator 16.0.0, SVG Export Plug-In . SVG Version: 6.00 Build 0)  -->
<!DOCTYPE svg PUBLIC "-//W3C//DTD SVG 1.1//EN" "http://www.w3.org/Graphics/SVG/1.1/DTD/svg11.dtd">
<svg version="1.1" id="Layer_1" xmlns="http://www.w3.org/2000/svg" xmlns:xlink="http://www.w3.org/1999/xlink" x="0px" y="0px"
	 width="360px" height="360px" viewBox="0 0 360 360" enable-background="new 0 0 360 360" xml:space="preserve">
<g>
	<path fill="#2F2F2F" d="M88.694,336.307c-25.518,0-40.806-3.496-51.127-11.688c-12.224-9.711-17.676-25.365-17.676-50.762v-60.293
		c0-1.14-0.708-4.743-2.898-8.635c-2.297-3.826-5.846-5.849-10.759-6.029L0,198.668v-37.576h6.475c4.984,0,8.325-1.815,10.517-5.714
		c2.234-3.726,2.9-7.848,2.9-8.946V86.137c0-25.394,5.452-41.048,17.676-50.758c10.894-8.647,27.521-12.021,55.393-11.659
		l6.39,0.084v38.971h-6.475c-11.697,0-19.836,0.704-24.271,4.202c-3.079,2.432-5.928,6.437-5.928,19.16v60.295
		c0,14.133-4.752,25.014-14.829,33.645c10.076,8.813,14.829,19.64,14.829,33.487v60.293c0,12.728,2.849,16.729,5.928,19.158
		c4.437,3.502,12.578,4.207,24.271,4.207h6.475v38.976l-6.39,0.081C91.509,336.299,90.085,336.307,88.694,336.307z"/>
</g>
<polygon fill="#2F2F2F" points="220.904,23.721 118.261,336.307 143.181,336.307 244.663,23.721 "/>
<g>
	<path fill="#2F2F2F" d="M271.325,336.307c-1.399,0-2.824-0.008-4.274-0.026l-6.39-0.08v-38.978h6.474
		c11.701,0,19.838-0.705,24.271-4.205c3.08-2.43,5.931-6.43,5.931-19.16v-60.293c0-13.848,4.751-24.674,14.829-33.485
		c-10.078-8.63-14.829-19.511-14.829-33.645V86.137c0-12.727-2.851-16.729-5.931-19.157c-4.43-3.503-12.569-4.205-24.271-4.205
		h-6.474v-38.97l6.39-0.084c28.127-0.36,44.823,3.018,55.707,11.661c12.174,9.663,17.365,24.844,17.365,50.756v60.295
		c0,1.098,0.666,5.222,2.809,8.792c2.279,4.051,5.623,5.868,10.604,5.868h6.474v37.576l-6.23,0.231
		c-4.911,0.183-8.461,2.205-10.852,6.185c-2.096,3.735-2.805,7.345-2.805,8.479v60.293c0,25.912-5.191,41.095-17.37,50.761
		C312.438,332.811,297.059,336.307,271.325,336.307z"/>
</g>
</svg>
