<?xml version="1.0" encoding="utf-8"?>
<!-- Generator: Adobe Illustrator 16.0.0, SVG Export Plug-In . SVG Version: 6.00 Build 0)  -->
<!DOCTYPE svg PUBLIC "-//W3C//DTD SVG 1.1//EN" "http://www.w3.org/Graphics/SVG/1.1/DTD/svg11.dtd">
<svg version="1.1" id="Layer_1" xmlns="http://www.w3.org/2000/svg" xmlns:xlink="http://www.w3.org/1999/xlink" x="0px" y="0px"
	 width="216px" height="270px" viewBox="0 0 216 270" enable-background="new 0 0 216 270" xml:space="preserve">
<g>
	<path fill="#231F20" d="M70.272,146.556c0-2.118-1.724-3.842-3.843-3.842s-3.843,1.724-3.843,3.842
		c0,2.119,1.724,3.843,3.843,3.843S70.272,148.675,70.272,146.556z"/>
	<path fill="#231F20" d="M134.299,32.769c0,2.119,1.724,3.843,3.842,3.843c2.119,0,3.844-1.724,3.844-3.843
		c0-2.119-1.725-3.842-3.844-3.842C136.022,28.927,134.299,30.65,134.299,32.769z"/>
	<path fill="#231F20" d="M193.113,72.554c0,2.119,1.725,3.842,3.844,3.842c2.118,0,3.842-1.724,3.842-3.842
		c0-2.119-1.724-3.843-3.842-3.843C194.838,68.711,193.113,70.435,193.113,72.554z"/>
	<path fill="#231F20" d="M115.025,171.642c0,2.119,1.724,3.843,3.843,3.843s3.843-1.724,3.843-3.843
		c0-2.118-1.724-3.842-3.843-3.842S115.025,169.523,115.025,171.642z"/>
	<path fill="#231F20" d="M89.664,116.752c0-2.119-1.724-3.843-3.843-3.843s-3.843,1.724-3.843,3.843
		c0,2.119,1.724,3.842,3.843,3.842S89.664,118.871,89.664,116.752z"/>
	<path fill="#231F20" d="M34.05,79.802c0-2.119-1.724-3.843-3.843-3.843s-3.843,1.724-3.843,3.843c0,2.119,1.724,3.842,3.843,3.842
		S34.05,81.92,34.05,79.802z"/>
	<path fill="#231F20" d="M145.992,207.438c0,2.119,1.725,3.843,3.844,3.843c2.118,0,3.842-1.724,3.842-3.843
		s-1.724-3.844-3.842-3.844C147.717,203.595,145.992,205.319,145.992,207.438z"/>
	<path fill="#231F20" d="M165.666,59.139H216V0H0v130.033l28.775-28.776V86.491c-3.088-0.66-5.412-3.407-5.412-6.689
		c0-3.773,3.07-6.843,6.843-6.843c3.773,0,6.843,3.07,6.843,6.843c0,3.232-2.256,5.942-5.274,6.654V102.5L0,134.275v14.235
		l33.058-33.058h46.048c0.609-3.153,3.387-5.543,6.715-5.543c3.773,0,6.843,3.07,6.843,6.843s-3.07,6.842-6.843,6.842
		c-3.185,0-5.861-2.19-6.62-5.142H34.3L0,152.753v13.926l21.624-21.623h38.133c0.687-3.053,3.415-5.342,6.672-5.342
		c3.773,0,6.843,3.069,6.843,6.842c0,3.773-3.07,6.843-6.843,6.843c-3.258,0-5.986-2.289-6.672-5.343H22.866L0,170.921V270h216v-48
		h-40.271l-14.683,14.682h-20.152c-0.687,3.053-3.415,5.342-6.672,5.342c-3.773,0-6.844-3.069-6.844-6.843
		c0-3.772,3.07-6.842,6.844-6.842c3.258,0,5.986,2.29,6.672,5.343h18.91L174.486,219H216v-10.372h-59.433
		c-0.565,3.207-3.365,5.653-6.731,5.653c-3.773,0-6.844-3.069-6.844-6.843s3.07-6.844,6.844-6.844c3.146,0,5.794,2.137,6.591,5.033
		H216v-10.111h-48.844l-22.376-22.375h-19.24c-0.687,3.054-3.414,5.343-6.672,5.343c-3.773,0-6.843-3.069-6.843-6.843
		c0-3.772,3.069-6.842,6.843-6.842c3.258,0,5.985,2.289,6.672,5.342h20.482l22.376,22.375H216V74.255h-12.424
		c-0.759,2.951-3.435,5.142-6.619,5.142c-3.773,0-6.844-3.069-6.844-6.842s3.07-6.843,6.844-6.843c3.328,0,6.105,2.39,6.715,5.543
		H216v-9.116h-51.576l-23.247-23.246c-0.916,0.456-1.945,0.719-3.036,0.719c-3.772,0-6.842-3.07-6.842-6.843
		s3.069-6.842,6.842-6.842c3.773,0,6.844,3.069,6.844,6.842c0,1.593-0.552,3.057-1.469,4.221L165.666,59.139z"/>
	<path fill="#231F20" d="M130.378,235.181c0,2.119,1.725,3.843,3.844,3.843s3.843-1.724,3.843-3.843
		c0-2.118-1.724-3.842-3.843-3.842S130.378,233.063,130.378,235.181z"/>
</g>
</svg>
