<?xml version="1.0" encoding="utf-8"?>
<!-- Generator: Adobe Illustrator 16.0.3, SVG Export Plug-In . SVG Version: 6.00 Build 0)  -->
<!DOCTYPE svg PUBLIC "-//W3C//DTD SVG 1.1//EN" "http://www.w3.org/Graphics/SVG/1.1/DTD/svg11.dtd">
<svg version="1.1" id="Layer_1" xmlns="http://www.w3.org/2000/svg" xmlns:xlink="http://www.w3.org/1999/xlink" x="0px" y="0px"
	 width="216px" height="270px" viewBox="0 0 216 270" enable-background="new 0 0 216 270" xml:space="preserve">
<rect fill="#EFBF2F" width="216" height="270"/>
<path opacity="0.2" fill="#FFFFFF" d="M94.12,158.043h-6.402v-27.447c0-1.332-0.76-1.521-1.521-1.521
	c-0.697,0-1.078,0.38-1.521,0.823c-0.189,0.255-0.38,0.509-0.57,0.826v27.317h-6.401V123.37h6.401v2.916
	c0.127-0.063,0.381-0.317,0.761-0.698c0.696-0.695,1.647-1.646,2.789-2.281c0.569-0.317,1.077-0.443,1.647-0.443
	c1.711,0,2.915,1.014,3.676,2.281c0.762,1.332,1.142,3.043,1.142,4.502V158.043z M115.352,158.042h-6.401v-2.916
	c-0.126,0.063-0.38,0.317-0.697,0.634c-0.761,0.762-1.647,1.647-2.79,2.282c-0.57,0.315-1.141,0.505-1.711,0.505
	c-1.711,0-2.916-1.013-3.676-2.344c-0.76-1.268-1.141-2.979-1.141-4.438V123.37h6.401v27.444c0,1.33,0.761,1.521,1.521,1.521
	c0.699,0,1.078-0.38,1.521-0.824c0.189-0.188,0.38-0.507,0.57-0.821l0.001-27.319h6.401V158.042z M126.823,158.042h-6.401v-46.589
	h6.401V158.042z M138.296,158.042h-6.401v-46.589h6.401V158.042z"/>
<g opacity="0.5">
	<path opacity="0.3" fill="#FFFFFF" d="M144.198,211.888c-3.759,0-6.814,3.059-6.814,6.815s3.058,6.814,6.814,6.814
		c3.241,0,5.958-2.276,6.644-5.314H216v-3h-65.158C150.156,214.165,147.439,211.888,144.198,211.888z M144.198,222.52
		c-2.104,0-3.814-1.713-3.814-3.815s1.711-3.815,3.814-3.815c2.103,0,3.814,1.713,3.814,3.815S146.302,222.52,144.198,222.52z"/>
	<path opacity="0.3" fill="#FFFFFF" d="M159.229,247.1h-18.803c-0.686-3.037-3.4-5.313-6.644-5.313
		c-3.759,0-6.815,3.057-6.815,6.813c0,3.758,3.059,6.815,6.815,6.815c3.241,0,5.958-2.276,6.644-5.315h20.045l14.605-14.604H216v-3
		h-42.165L159.229,247.1z M133.783,252.415c-2.104,0-3.815-1.712-3.815-3.815c0-2.103,1.712-3.813,3.815-3.813
		c2.103,0,3.814,1.711,3.814,3.813C137.598,250.703,135.887,252.415,133.783,252.415z"/>
	<path opacity="0.3" fill="#FFFFFF" d="M167.786,204.16l-22.261-22.26l-22.152-0.002c-0.686-3.036-3.4-5.313-6.643-5.313
		c-3.758,0-6.815,3.058-6.815,6.813c0,3.758,3.058,6.815,6.815,6.815c3.242,0,5.957-2.276,6.643-5.315l20.911,0.002l22.26,22.26H216
		v-3H167.786z M116.73,187.215c-2.104,0-3.815-1.712-3.815-3.814c0-2.104,1.712-3.814,3.815-3.814c2.103,0,3.813,1.711,3.813,3.814
		C120.544,185.503,118.834,187.215,116.73,187.215z"/>
</g>
<g opacity="0.5">
	<path opacity="0.3" fill="#FFFFFF" d="M196.393,53.225c-3.759,0-6.814,3.058-6.814,6.815s3.057,6.814,6.814,6.814
		c3.241,0,5.957-2.277,6.644-5.314H216v-3h-12.965C202.35,55.502,199.634,53.225,196.393,53.225z M196.393,63.854
		c-2.104,0-3.814-1.711-3.814-3.814c0-2.104,1.711-3.815,3.814-3.815c2.103,0,3.814,1.711,3.814,3.815
		C200.207,62.143,198.495,63.854,196.393,63.854z"/>
	<path opacity="0.3" fill="#FFFFFF" d="M165.066,42.476L165.066,42.476L143.24,20.649c0.91-1.158,1.458-2.614,1.458-4.198
		c0-3.758-3.058-6.815-6.815-6.815c-3.757,0-6.814,3.058-6.814,6.815c0,3.757,3.058,6.814,6.814,6.814
		c1.084,0,2.106-0.261,3.018-0.714l22.925,22.925H216v-3H165.066z M137.882,20.266c-2.103,0-3.815-1.711-3.815-3.814
		c0-2.104,1.713-3.815,3.815-3.815s3.815,1.711,3.815,3.815C141.697,18.555,139.984,20.266,137.882,20.266z"/>
</g>
<g opacity="0.5">
	<path opacity="0.3" fill="#FFFFFF" d="M71.251,100.241c-3.242,0-5.958,2.277-6.644,5.315H21.768L0,127.324v4.242l23.01-23.011
		h41.598c0.687,3.037,3.402,5.314,6.644,5.314c3.758,0,6.815-3.058,6.815-6.815C78.066,103.297,75.009,100.241,71.251,100.241z
		 M71.251,110.87c-2.104,0-3.815-1.711-3.815-3.815c0-2.103,1.711-3.814,3.815-3.814s3.815,1.711,3.815,3.814
		C75.066,109.159,73.355,110.87,71.251,110.87z"/>
	<path opacity="0.3" fill="#FFFFFF" d="M85.99,70.792c-3.242,0-5.958,2.277-6.643,5.315H33.142L0,109.25v4.242l34.384-34.384h44.963
		c0.686,3.038,3.401,5.315,6.643,5.315c3.758,0,6.815-3.058,6.815-6.815C92.805,73.851,89.748,70.792,85.99,70.792z M85.99,81.423
		c-2.104,0-3.815-1.711-3.815-3.815s1.711-3.815,3.815-3.815c2.104,0,3.815,1.711,3.815,3.815
		C89.806,79.711,88.094,81.423,85.99,81.423z"/>
	<path opacity="0.3" fill="#FFFFFF" d="M32.142,48.535c3.049-0.677,5.338-3.399,5.338-6.649c0-3.758-3.057-6.816-6.815-6.816
		s-6.815,3.058-6.815,6.815c0,3.233,2.266,5.942,5.292,6.637l-0.253,14.493L0,91.905v4.242l31.867-31.866L32.142,48.535z
		 M26.85,41.886c0-2.104,1.711-3.814,3.815-3.814s3.815,1.711,3.815,3.814s-1.711,3.815-3.815,3.815S26.85,43.99,26.85,41.886z"/>
</g>
</svg>
