<?xml version="1.0" encoding="utf-8"?>
<!-- Generator: Adobe Illustrator 16.0.0, SVG Export Plug-In . SVG Version: 6.00 Build 0)  -->
<!DOCTYPE svg PUBLIC "-//W3C//DTD SVG 1.1//EN" "http://www.w3.org/Graphics/SVG/1.1/DTD/svg11.dtd">
<svg version="1.1" id="Layer_1" xmlns="http://www.w3.org/2000/svg" xmlns:xlink="http://www.w3.org/1999/xlink" x="0px" y="0px"
	 width="360px" height="458.95px" viewBox="0 0 360 458.95" enable-background="new 0 0 360 458.95" xml:space="preserve">
<g>
	<g>
		<path fill="#231F20" d="M210.694,140.63v-22.457c-0.229-6.446-1.566-25.213-4.004-30.325c-2-4.448-5.119-8.895-9.563-12.231
			c-4.445-3.333-10.461-5.558-18.459-5.558c-0.133,0-13.021,0.005-13.147,0.012V70.06h-55.793c-7.997,0-14.23,2.225-18.681,5.558
			c-4.457,3.336-7.335,7.783-9.327,12.231c-2.452,5.112-3.782,11.116-4.005,17.565v134.56c0.223,6.666,1.553,12.676,4.005,17.783
			c1.992,4.449,4.87,8.67,9.327,12.008c4.451,3.559,10.684,5.557,18.681,5.557h68.941c7.998,0,14.014-1.998,18.459-5.557
			c4.443-3.338,7.563-7.559,9.563-12.008c2.438-5.107,3.775-11.117,4.004-17.783v-35.223h-35.221v22.462
			c0,2.449-0.23,4.44-0.885,6.001c-1.115,3.328-3.121,6.002-8.233,6.002c-0.293,0-0.567-0.02-0.834-0.045v0.025h-43.034
			c-1.789-0.082-3.202-0.732-4.221-1.758c-2.223-2.443-3.572-5.559-3.776-10.226v-109.04c0.204-2.219,0.439-4.225,1.107-5.998
			c1.07-2.789,2.967-5.771,6.889-5.991v0.025h43.034c0.267-0.025,0.541-0.041,0.834-0.041c2.452,0,4.444,0.665,5.552,1.776
			c2.457,2.673,3.566,5.781,3.566,10.228v22.457H210.694z"/>
		<path fill="#231F20" d="M148.21,370.985c1.998,3.793,5.119,7.596,9.557,10.441c4.451,2.84,23.234,4.75,31.242,4.75
			c0.115,0,0.262-0.008,0.383-0.008v-32.725c-0.268,0.02-0.541,0.031-0.822,0.031c-2.463,0-4.463-0.561-5.57-1.516
			c-2.451-2.279-3.559-4.928-3.559-8.734v-19.164h-35.242v31.93C144.434,361.497,145.765,366.63,148.21,370.985z"/>
		<path fill="#231F20" d="M319.384,266.454V401.14v5.436c0,2.453-0.236,4.445-0.922,6.012c-1.129,3.195-3.121,5.787-8.043,5.979
			h-0.973c-0.186-0.008-0.352-0.014-0.516-0.025v0.025h-45.633h-46.834l-23.359,40.385h70.193l0,0h64.682v-0.057
			c7.59-0.25,13.416-2.178,17.771-5.508c4.658-3.33,7.932-7.559,10.045-12.008c2.561-5.119,3.967-11.117,4.203-17.789V401.14
			V242.851L319.384,266.454z"/>
		<path fill="#D6B329" d="M355.827,17.79c-2.086-4.444-5.334-8.892-9.977-12.237C341.218,2.226,334.952,0,326.604,0
			c-0.141,0-0.273,0.003-0.414,0.003V0H32C24.01,0,17.79,2.226,13.333,5.553C8.889,8.898,5.999,13.345,3.999,17.79
			c-2.444,5.116-3.788,11.114-3.998,17.566v90.454v192.896l41.021-24.021V125.81V52.372c0.223-2.226,0.439-4.229,1.114-6.007
			c1.07-2.783,2.974-5.766,6.876-5.986v0.029h260.166c0.279-0.032,0.566-0.048,0.871-0.048c2.555,0,4.637,0.666,5.801,1.783
			c2.553,2.665,3.707,5.775,3.707,10.229v22.449v30.048l40.441-23.42V57.81V35.356C359.769,28.903,358.368,22.905,355.827,17.79z"/>
	</g>
	<g>
		<g>
			<path fill="#D6B329" d="M264.14,236.974c0,1.682,0.719,5.756,2.871,9.373c2.158,3.832,6.01,6.951,12.484,6.951v36.229
				c-6.475,0.242-10.326,3.592-12.484,7.195c-2.152,3.846-2.871,7.443-2.871,9.129v38.063c0,18.012-3.361,28.816-11.523,35.297
				c-8.176,6.482-34.135,8.164-52.623,7.922v-32.924c10.32,0,17.285-0.719,21.857-4.324c4.545-3.604,6.475-9.123,6.475-18.73
				v-33.807c0-12.48,5.52-19.93,14.879-25.934c-9.359-5.756-14.879-13.199-14.879-25.934v-33.812c0-9.604-1.93-15.128-6.475-18.725
				c-4.572-3.604-11.537-4.326-21.857-4.326v-32.926c18.488-0.243,44.447,1.438,52.623,7.92
				c8.162,6.488,11.523,17.286,11.523,35.294V236.974z"/>
		</g>
	</g>
	<path fill="#231F20" d="M259.669,155.668c11.219,9.235,14.242,23.306,14.924,36.106h30.033v-36.106H259.669z"/>
</g>
</svg>
